<svg width="1300" height="1300" viewBox="0 0 1300 1300" fill="none" xmlns="http://www.w3.org/2000/svg">
<path fill-rule="evenodd" clip-rule="evenodd" d="M875 1001.24L1296.8 649.741L875 298.241L875 384.694L1193.32 649.402L875 914.788V1001.24Z" fill="#56738F"/>
<path d="M500.199 1208.2L490.478 1081.26L571.411 1102.95L500.199 1208.2Z" fill="#0080FF"/>
<path d="M705.452 343.709L754.012 356.72L571.41 1102.95L490.477 1081.26L705.452 343.709Z" fill="#0080FF"/>
<path d="M606.058 350.455C618.64 356.322 644.694 327.08 664.25 285.141L641.469 274.517L606.058 350.455Z" fill="#0080FF"/>
<path d="M836.913 412.314C823.083 411.104 815.142 372.752 819.175 326.654L844.216 328.844L836.913 412.314Z" fill="#0080FF"/>
<rect x="641.578" y="274.547" width="209.471" height="33.5153" transform="rotate(15 641.578 274.547)" fill="#0080FF"/>
<rect x="765.887" y="134.366" width="41.8942" height="167.577" transform="rotate(15 765.887 134.366)" fill="#0080FF"/>
<rect x="755.352" y="117.023" width="50.273" height="50.273" rx="12" transform="rotate(-30 755.352 117.023)" fill="#0080FF"/>
<path fill-rule="evenodd" clip-rule="evenodd" d="M424.8 298.243L3 649.743L424.8 1001.24V914.79L106.48 650.083L424.8 384.697V298.243Z" fill="#56738F"/>
</svg>
