<svg width="260" height="202" viewBox="0 0 260 202" fill="none" xmlns="http://www.w3.org/2000/svg">
<g clip-path="url(#clip0_670_50)">
<path d="M9.96354 0C7.32197 0.00300641 4.78945 1.0537 2.92157 2.92158C1.0537 4.78945 0.0030031 7.32198 0 9.96356V191.829C0.00304686 194.47 1.05376 197.003 2.92163 198.871C4.7895 200.739 7.322 201.789 9.96354 201.792H109.58C112.222 201.789 114.754 200.739 116.622 198.871C118.49 197.003 119.541 194.47 119.544 191.829V9.96354C119.541 7.32196 118.49 4.78945 116.622 2.92157C114.754 1.0537 112.222 0.00300557 109.58 0H9.96354Z" fill="#E6E6E6"/>
<path d="M13.22 5.66089C11.2159 5.66317 9.29453 6.4603 7.87742 7.87742C6.4603 9.29453 5.66317 11.2159 5.66089 13.22V188.572C5.66314 190.576 6.46026 192.498 7.87738 193.915C9.2945 195.332 11.2159 196.129 13.22 196.132H106.324C108.328 196.129 110.249 195.332 111.666 193.915C113.083 192.498 113.881 190.576 113.883 188.572V13.22C113.881 11.2159 113.083 9.29454 111.666 7.87742C110.249 6.46031 108.328 5.66317 106.324 5.66089H13.22Z" fill="white"/>
<path d="M104.726 42.6187H14.818C14.3766 42.6182 13.9534 42.4426 13.6413 42.1305C13.3292 41.8184 13.1536 41.3952 13.1531 40.9538V18.6515C13.1536 18.2101 13.3292 17.7869 13.6413 17.4748C13.9534 17.1627 14.3766 16.9871 14.818 16.9866H104.726C105.167 16.9871 105.59 17.1627 105.902 17.4748C106.215 17.7869 106.39 18.2101 106.391 18.6515V40.9538C106.39 41.3952 106.215 41.8184 105.902 42.1305C105.59 42.4426 105.167 42.6182 104.726 42.6187V42.6187ZM14.818 17.6525C14.5532 17.6528 14.2992 17.7582 14.112 17.9455C13.9247 18.1327 13.8193 18.3867 13.819 18.6515V40.9538C13.8193 41.2186 13.9247 41.4725 14.112 41.6598C14.2992 41.8471 14.5532 41.9525 14.818 41.9527H104.726C104.991 41.9525 105.244 41.8471 105.432 41.6598C105.619 41.4726 105.724 41.2186 105.725 40.9538V18.6515C105.724 18.3867 105.619 18.1327 105.432 17.9455C105.244 17.7582 104.991 17.6528 104.726 17.6525L14.818 17.6525Z" fill="#E6E6E6"/>
<path d="M104.726 130.861H14.818C14.3766 130.861 13.9534 130.685 13.6413 130.373C13.3292 130.061 13.1536 129.638 13.1531 129.196V87.9135C13.1536 87.4721 13.3292 87.0489 13.6413 86.7368C13.9534 86.4246 14.3766 86.2491 14.818 86.2485H104.726C105.167 86.2491 105.59 86.4246 105.902 86.7368C106.215 87.0489 106.39 87.4721 106.391 87.9135V129.196C106.39 129.638 106.214 130.061 105.902 130.373C105.59 130.685 105.167 130.861 104.726 130.861V130.861ZM14.818 86.9145C14.5532 86.9148 14.2992 87.0201 14.112 87.2074C13.9247 87.3947 13.8193 87.6486 13.819 87.9135V129.196C13.8193 129.461 13.9247 129.715 14.112 129.902C14.2992 130.09 14.5532 130.195 14.818 130.195H104.726C104.991 130.195 105.244 130.09 105.432 129.902C105.619 129.715 105.724 129.461 105.725 129.196V87.9135C105.724 87.6486 105.619 87.3947 105.432 87.2074C105.244 87.0201 104.991 86.9148 104.726 86.9145L14.818 86.9145Z" fill="#E6E6E6"/>
<path d="M104.06 77.2498H64.1005C63.6591 77.2493 63.2359 77.0737 62.9238 76.7616C62.6116 76.4495 62.4361 76.0263 62.4355 75.5849V53.2826C62.4361 52.8412 62.6116 52.418 62.9238 52.1059C63.2359 51.7938 63.6591 51.6182 64.1005 51.6177H104.06C104.501 51.6182 104.924 51.7938 105.236 52.1059C105.548 52.418 105.724 52.8412 105.724 53.2826V75.5849C105.724 76.0263 105.548 76.4495 105.236 76.7616C104.924 77.0737 104.501 77.2493 104.06 77.2498V77.2498ZM64.1005 52.2837C63.8356 52.2839 63.5817 52.3893 63.3944 52.5766C63.2071 52.7639 63.1018 53.0178 63.1015 53.2826V75.5849C63.1018 75.8497 63.2071 76.1037 63.3944 76.2909C63.5817 76.4782 63.8356 76.5836 64.1005 76.5839H104.06C104.324 76.5836 104.578 76.4782 104.766 76.2909C104.953 76.1037 105.058 75.8497 105.059 75.5849V53.2826C105.058 53.0178 104.953 52.7638 104.766 52.5765C104.578 52.3893 104.324 52.2839 104.06 52.2836L64.1005 52.2837Z" fill="#E6E6E6"/>
<path d="M54.7771 184.806H14.818C14.3766 184.805 13.9534 184.63 13.6413 184.317C13.3292 184.005 13.1536 183.582 13.1531 183.141V141.525C13.1536 141.084 13.3292 140.66 13.6413 140.348C13.9534 140.036 14.3766 139.861 14.818 139.86H54.7771C55.2185 139.861 55.6417 140.036 55.9538 140.348C56.2659 140.66 56.4415 141.084 56.442 141.525V183.141C56.4415 183.582 56.2659 184.005 55.9538 184.317C55.6417 184.63 55.2185 184.805 54.7771 184.806V184.806ZM14.818 140.526C14.5532 140.526 14.2992 140.632 14.112 140.819C13.9247 141.006 13.8193 141.26 13.819 141.525V183.141C13.8193 183.406 13.9247 183.66 14.112 183.847C14.2992 184.034 14.5532 184.139 14.818 184.14H54.7771C55.0419 184.139 55.2958 184.034 55.4831 183.847C55.6704 183.66 55.7758 183.406 55.776 183.141V141.525C55.7758 141.26 55.6704 141.006 55.4831 140.819C55.2958 140.632 55.0419 140.526 54.7771 140.526H14.818Z" fill="#E6E6E6"/>
<path d="M104.06 184.806H64.1005C63.6591 184.805 63.2359 184.63 62.9238 184.317C62.6116 184.005 62.4361 183.582 62.4355 183.141V141.525C62.4361 141.084 62.6117 140.66 62.9238 140.348C63.2359 140.036 63.6591 139.861 64.1005 139.86H104.06C104.501 139.861 104.924 140.036 105.236 140.348C105.548 140.66 105.724 141.084 105.724 141.525V183.141C105.724 183.582 105.548 184.005 105.236 184.317C104.924 184.63 104.501 184.805 104.06 184.806V184.806ZM64.1005 140.526C63.8356 140.526 63.5817 140.632 63.3944 140.819C63.2071 141.006 63.1018 141.26 63.1015 141.525V183.141C63.1018 183.406 63.2071 183.66 63.3944 183.847C63.5817 184.034 63.8356 184.139 64.1005 184.14H104.06C104.324 184.139 104.578 184.034 104.766 183.847C104.953 183.66 105.058 183.406 105.059 183.141V141.525C105.058 141.26 104.953 141.006 104.766 140.819C104.578 140.632 104.324 140.526 104.06 140.526H64.1005Z" fill="#E6E6E6"/>
<path d="M28.1217 107.655C31.8674 107.655 34.9039 104.619 34.9039 100.873C34.9039 97.1273 31.8674 94.0908 28.1217 94.0908C24.3761 94.0908 21.3396 97.1273 21.3396 100.873C21.3396 104.619 24.3761 107.655 28.1217 107.655Z" fill="#E6E6E6"/>
<path d="M43.7854 96.3516C43.4856 96.3516 43.1981 96.4706 42.9861 96.6826C42.7741 96.8946 42.655 97.1821 42.655 97.4819C42.655 97.7817 42.7741 98.0692 42.9861 98.2812C43.1981 98.4932 43.4856 98.6123 43.7854 98.6123H97.0736C97.373 98.6116 97.6598 98.4922 97.8712 98.2803C98.0826 98.0684 98.2013 97.7812 98.2013 97.4819C98.2013 97.1826 98.0826 96.8955 97.8712 96.6836C97.6598 96.4717 97.373 96.3523 97.0736 96.3516H43.7854Z" fill="#E6E6E6"/>
<path d="M43.7854 103.134C43.4858 103.133 43.1983 103.252 42.9862 103.463C42.774 103.675 42.6544 103.962 42.6538 104.262C42.6532 104.561 42.7715 104.849 42.9828 105.061C43.1941 105.273 43.481 105.393 43.7806 105.394H66.7155C67.0153 105.394 67.3028 105.275 67.5148 105.063C67.7267 104.851 67.8458 104.564 67.8458 104.264C67.8458 103.964 67.7267 103.677 67.5148 103.465C67.3028 103.253 67.0153 103.134 66.7155 103.134H43.7854Z" fill="#E6E6E6"/>
<path d="M22.9197 113.976C22.0598 113.976 21.3601 114.483 21.3601 115.107C21.3601 115.73 22.0598 116.237 22.9197 116.237H96.441C97.3009 116.237 98.0006 115.73 98.0006 115.107C98.0006 114.483 97.3008 113.976 96.441 113.976H22.9197Z" fill="#E6E6E6"/>
<path d="M22.9197 120.758C22.0598 120.758 21.3601 121.265 21.3601 121.889C21.3601 122.512 22.0598 123.019 22.9197 123.019H96.441C97.3009 123.019 98.0006 122.512 98.0006 121.889C98.0006 121.265 97.3008 120.758 96.441 120.758H22.9197Z" fill="#E6E6E6"/>
<path d="M28.7878 35.7291C32.5334 35.7291 35.5699 32.6926 35.5699 28.9469C35.5699 25.2013 32.5334 22.1648 28.7878 22.1648C25.0421 22.1648 22.0056 25.2013 22.0056 28.9469C22.0056 32.6926 25.0421 35.7291 28.7878 35.7291Z" fill="#E6E6E6"/>
<path d="M44.4514 24.4255C44.1521 24.4262 43.8653 24.5456 43.6539 24.7575C43.4425 24.9695 43.3237 25.2566 43.3237 25.5559C43.3237 25.8552 43.4425 26.1423 43.6539 26.3542C43.8653 26.5661 44.1521 26.6855 44.4514 26.6862H97.7397C97.8882 26.6867 98.0354 26.6579 98.1728 26.6015C98.3102 26.545 98.4351 26.462 98.5404 26.3573C98.6457 26.2525 98.7293 26.128 98.7865 25.9909C98.8437 25.8538 98.8733 25.7068 98.8736 25.5583C98.8739 25.4097 98.8449 25.2626 98.7883 25.1253C98.7317 24.9879 98.6487 24.8631 98.5438 24.7579C98.4389 24.6527 98.3144 24.5692 98.1772 24.5122C98.04 24.4551 97.893 24.4257 97.7445 24.4255C97.7429 24.4255 97.7413 24.4255 97.7397 24.4255H44.4514Z" fill="#E6E6E6"/>
<path d="M44.4512 31.2075C44.1518 31.208 43.8647 31.3273 43.6532 31.5393C43.4416 31.7512 43.3228 32.0384 43.3228 32.3379C43.3228 32.6373 43.4416 32.9246 43.6532 33.1365C43.8647 33.3484 44.1518 33.4677 44.4512 33.4682H67.3813C67.6811 33.4689 67.9689 33.3504 68.1813 33.1388C68.3937 32.9273 68.5134 32.64 68.5141 32.3403C68.5147 32.0405 68.3962 31.7527 68.1847 31.5403C67.9732 31.3279 67.6859 31.2082 67.3861 31.2075C67.3845 31.2075 67.3829 31.2075 67.3813 31.2075H44.4512Z" fill="#E6E6E6"/>
<path d="M54.7416 77.2538H17.2566L26.0781 61.9743C26.2362 61.7004 26.4636 61.473 26.7374 61.3149C27.0113 61.1567 27.3219 61.0735 27.6381 61.0735C27.9544 61.0735 28.265 61.1567 28.5389 61.3149C28.8127 61.473 29.0401 61.7004 29.1982 61.9743L32.9666 68.5014L39.3743 57.4031C39.5722 57.0603 39.8569 56.7755 40.1998 56.5776C40.5427 56.3796 40.9316 56.2754 41.3275 56.2754C41.7234 56.2754 42.1123 56.3796 42.4552 56.5776C42.7981 56.7755 43.0828 57.0603 43.2807 57.4031L54.7416 77.2538ZM18.41 76.5878H53.5882L42.7039 57.7361C42.5644 57.4945 42.3638 57.2938 42.1222 57.1543C41.8806 57.0148 41.6065 56.9413 41.3275 56.9413C41.0485 56.9413 40.7745 57.0148 40.5329 57.1543C40.2913 57.2938 40.0906 57.4945 39.9512 57.7361L32.9667 69.8333L28.6214 62.3073C28.5218 62.1346 28.3784 61.9913 28.2059 61.8916C28.0333 61.792 27.8375 61.7395 27.6382 61.7395C27.4389 61.7395 27.2431 61.792 27.0705 61.8916C26.8979 61.9913 26.7546 62.1346 26.655 62.3073L18.41 76.5878Z" fill="#E6E6E6"/>
<path d="M102.692 77.2538H65.2073L74.0287 61.9743C74.1868 61.7004 74.4143 61.473 74.6881 61.3149C74.962 61.1567 75.2726 61.0735 75.5888 61.0735C75.9051 61.0735 76.2157 61.1567 76.4896 61.3149C76.7634 61.473 76.9908 61.7004 77.1489 61.9743L80.9173 68.5014L87.325 57.4031C87.5229 57.0603 87.8076 56.7755 88.1505 56.5776C88.4933 56.3796 88.8823 56.2754 89.2782 56.2754C89.6741 56.2754 90.063 56.3796 90.4059 56.5776C90.7488 56.7755 91.0335 57.0603 91.2314 57.4031L102.692 77.2538ZM66.3607 76.5878H101.539L90.6546 57.7361C90.5151 57.4945 90.3145 57.2938 90.0729 57.1543C89.8313 57.0148 89.5572 56.9414 89.2782 56.9414C88.9992 56.9414 88.7251 57.0148 88.4835 57.1543C88.2419 57.2938 88.0413 57.4945 87.9019 57.7361L80.9173 69.8333L76.572 62.3073C76.4724 62.1346 76.3291 61.9913 76.1565 61.8916C75.9839 61.792 75.7881 61.7395 75.5888 61.7395C75.3895 61.7395 75.1937 61.792 75.0212 61.8916C74.8486 61.9913 74.7053 62.1346 74.6056 62.3073L66.3607 76.5878Z" fill="#E6E6E6"/>
<path d="M54.7771 77.2498H14.818C14.3766 77.2493 13.9534 77.0737 13.6413 76.7616C13.3292 76.4495 13.1536 76.0263 13.1531 75.5849V53.2826C13.1536 52.8412 13.3292 52.418 13.6413 52.1059C13.9534 51.7938 14.3766 51.6182 14.818 51.6177H54.7771C55.2185 51.6182 55.6417 51.7938 55.9538 52.1059C56.2659 52.418 56.4415 52.8412 56.442 53.2826V75.5849C56.4415 76.0263 56.2659 76.4495 55.9538 76.7616C55.6416 77.0737 55.2185 77.2493 54.7771 77.2498V77.2498ZM14.818 52.2837C14.5532 52.2839 14.2992 52.3893 14.112 52.5766C13.9247 52.7639 13.8193 53.0178 13.819 53.2826V75.5849C13.8193 75.8497 13.9247 76.1037 14.112 76.2909C14.2992 76.4782 14.5532 76.5836 14.818 76.5839H54.7771C55.0419 76.5836 55.2958 76.4782 55.4831 76.2909C55.6704 76.1037 55.7757 75.8497 55.776 75.5849V53.2826C55.7757 53.0178 55.6704 52.7638 55.4831 52.5765C55.2958 52.3893 55.0419 52.2839 54.7771 52.2836L14.818 52.2837Z" fill="#E6E6E6"/>
<path d="M23.3324 148.442C23.1838 148.442 23.0366 148.471 22.8993 148.528C22.7619 148.584 22.6371 148.668 22.5319 148.773C22.4268 148.878 22.3433 149.002 22.2864 149.14C22.2295 149.277 22.2002 149.424 22.2002 149.573C22.2002 149.721 22.2295 149.868 22.2864 150.006C22.3433 150.143 22.4268 150.267 22.5319 150.372C22.6371 150.477 22.7619 150.561 22.8993 150.617C23.0366 150.674 23.1838 150.703 23.3324 150.703H46.2625C46.4111 150.703 46.5583 150.674 46.6957 150.617C46.833 150.561 46.9579 150.477 47.063 150.372C47.1682 150.267 47.2516 150.143 47.3085 150.006C47.3655 149.868 47.3948 149.721 47.3948 149.573C47.3948 149.424 47.3655 149.277 47.3085 149.14C47.2516 149.002 47.1682 148.878 47.063 148.773C46.9579 148.668 46.833 148.584 46.6957 148.528C46.5583 148.471 46.4111 148.442 46.2625 148.442H23.3324Z" fill="#E6E6E6"/>
<path d="M23.3325 155.102C23.0327 155.102 22.7452 155.221 22.5332 155.433C22.3212 155.645 22.2021 155.932 22.2021 156.232C22.2021 156.532 22.3212 156.819 22.5332 157.031C22.7452 157.243 23.0327 157.363 23.3325 157.363H46.2626C46.5624 157.363 46.8499 157.243 47.0619 157.031C47.2739 156.819 47.393 156.532 47.393 156.232C47.393 155.932 47.2739 155.645 47.0619 155.433C46.8499 155.221 46.5624 155.102 46.2626 155.102H23.3325Z" fill="#E6E6E6"/>
<path d="M34.7977 176.224C33.3905 176.224 32.0148 175.807 30.8448 175.025C29.6747 174.243 28.7627 173.132 28.2242 171.832C27.6857 170.531 27.5448 169.101 27.8193 167.721C28.0939 166.34 28.7715 165.073 29.7666 164.078C30.7616 163.083 32.0294 162.405 33.4096 162.13C34.7898 161.856 36.2204 161.997 37.5205 162.535C38.8206 163.074 39.9319 163.986 40.7137 165.156C41.4955 166.326 41.9128 167.702 41.9128 169.109C41.9106 170.995 41.1603 172.804 39.8265 174.138C38.4926 175.471 36.6841 176.222 34.7977 176.224V176.224ZM34.7977 162.66C33.5222 162.66 32.2753 163.038 31.2148 163.747C30.1542 164.455 29.3276 165.462 28.8395 166.641C28.3514 167.819 28.2237 169.116 28.4725 170.367C28.7214 171.618 29.3356 172.767 30.2375 173.669C31.1394 174.571 32.2885 175.185 33.5396 175.434C34.7906 175.683 36.0873 175.555 37.2657 175.067C38.4441 174.579 39.4513 173.752 40.1599 172.692C40.8686 171.631 41.2468 170.384 41.2468 169.109C41.2448 167.399 40.5647 165.76 39.3557 164.551C38.1467 163.342 36.5075 162.662 34.7977 162.66V162.66Z" fill="#E6E6E6"/>
<path d="M95.5451 176.224C95.6937 176.224 95.8409 176.195 95.9783 176.138C96.1157 176.082 96.2405 175.998 96.3456 175.893C96.4508 175.788 96.5342 175.664 96.5912 175.527C96.6481 175.389 96.6774 175.242 96.6774 175.094C96.6774 174.945 96.6481 174.798 96.5912 174.661C96.5342 174.523 96.4508 174.399 96.3456 174.294C96.2405 174.189 96.1157 174.105 95.9783 174.049C95.8409 173.992 95.6937 173.963 95.5451 173.963H72.6151C72.3156 173.964 72.0286 174.083 71.817 174.295C71.6054 174.507 71.4866 174.794 71.4866 175.094C71.4866 175.393 71.6054 175.68 71.817 175.892C72.0286 176.104 72.3156 176.223 72.6151 176.224H95.5451Z" fill="#E6E6E6"/>
<path d="M95.5451 169.564C95.6937 169.564 95.8409 169.535 95.9782 169.478C96.1156 169.422 96.2404 169.339 96.3456 169.234C96.4507 169.129 96.5342 169.004 96.5911 168.867C96.648 168.729 96.6773 168.582 96.6773 168.434C96.6773 168.285 96.648 168.138 96.5911 168.001C96.5342 167.863 96.4507 167.739 96.3456 167.634C96.2404 167.529 96.1156 167.445 95.9782 167.389C95.8409 167.332 95.6937 167.303 95.5451 167.303H72.615C72.3152 167.303 72.0277 167.422 71.8157 167.634C71.6037 167.846 71.4846 168.134 71.4846 168.434C71.4846 168.733 71.6037 169.021 71.8157 169.233C72.0277 169.445 72.3152 169.564 72.615 169.564H95.5451Z" fill="#E6E6E6"/>
<path d="M84.0799 148.442C85.4872 148.442 86.8628 148.859 88.0328 149.641C89.2029 150.423 90.1149 151.534 90.6534 152.834C91.1919 154.135 91.3328 155.565 91.0583 156.945C90.7838 158.325 90.1061 159.593 89.111 160.588C88.116 161.583 86.8482 162.261 85.468 162.536C84.0878 162.81 82.6572 162.669 81.3571 162.131C80.057 161.592 78.9458 160.68 78.164 159.51C77.3821 158.34 76.9648 156.964 76.9648 155.557V155.557C76.967 153.671 77.7173 151.862 79.0512 150.528C80.385 149.195 82.1935 148.444 84.0799 148.442V148.442ZM84.0799 162.006C85.3554 162.006 86.6023 161.628 87.6628 160.919C88.7234 160.211 89.55 159.204 90.0381 158.025C90.5262 156.847 90.654 155.55 90.4051 154.299C90.1563 153.048 89.5421 151.899 88.6402 150.997C87.7382 150.095 86.5891 149.481 85.3381 149.232C84.0871 148.983 82.7904 149.111 81.612 149.599C80.4336 150.087 79.4264 150.914 78.7177 151.974C78.0091 153.035 77.6309 154.282 77.6309 155.557V155.557C77.6328 157.267 78.3129 158.906 79.5219 160.115C80.7309 161.324 82.3701 162.004 84.0799 162.006V162.006Z" fill="#E6E6E6"/>
<path opacity="0.3" d="M73.1806 58.0715C82.4822 58.0715 90.0227 50.5311 90.0227 41.2295C90.0227 31.9279 82.4822 24.3875 73.1806 24.3875C63.8791 24.3875 56.3386 31.9279 56.3386 41.2295C56.3386 50.5311 63.8791 58.0715 73.1806 58.0715Z" fill="#FF0080"/>
<path opacity="0.3" d="M73.1806 52.4575C79.3817 52.4575 84.4087 47.4305 84.4087 41.2295C84.4087 35.0284 79.3817 30.0015 73.1806 30.0015C66.9796 30.0015 61.9526 35.0284 61.9526 41.2295C61.9526 47.4305 66.9796 52.4575 73.1806 52.4575Z" fill="#FF0080"/>
<path d="M73.1805 49.0268C77.4868 49.0268 80.9778 45.5359 80.9778 41.2296C80.9778 36.9233 77.4868 33.4324 73.1805 33.4324C68.8742 33.4324 65.3833 36.9233 65.3833 41.2296C65.3833 45.5359 68.8742 49.0268 73.1805 49.0268Z" fill="#FF0080"/>
<path opacity="0.3" d="M34.8182 167.52C41.6947 167.52 47.2692 161.946 47.2692 155.069C47.2692 148.193 41.6947 142.618 34.8182 142.618C27.9417 142.618 22.3672 148.193 22.3672 155.069C22.3672 161.946 27.9417 167.52 34.8182 167.52Z" fill="#FF0080"/>
<path opacity="0.3" d="M34.8183 163.37C39.4026 163.37 43.1189 159.654 43.1189 155.069C43.1189 150.485 39.4026 146.769 34.8183 146.769C30.2339 146.769 26.5176 150.485 26.5176 155.069C26.5176 159.654 30.2339 163.37 34.8183 163.37Z" fill="#FF0080"/>
<path d="M34.8183 160.833C38.0019 160.833 40.5827 158.253 40.5827 155.069C40.5827 151.885 38.0019 149.305 34.8183 149.305C31.6347 149.305 29.054 151.885 29.054 155.069C29.054 158.253 31.6347 160.833 34.8183 160.833Z" fill="#FF0080"/>
<path opacity="0.3" d="M86.5919 120.737C94.5019 120.737 100.914 114.324 100.914 106.414C100.914 98.5044 94.5019 92.092 86.5919 92.092C78.6819 92.092 72.2695 98.5044 72.2695 106.414C72.2695 114.324 78.6819 120.737 86.5919 120.737Z" fill="#FF0080"/>
<path opacity="0.3" d="M86.5919 115.963C91.8653 115.963 96.1402 111.688 96.1402 106.414C96.1402 101.141 91.8653 96.8662 86.5919 96.8662C81.3186 96.8662 77.0437 101.141 77.0437 106.414C77.0437 111.688 81.3186 115.963 86.5919 115.963Z" fill="#FF0080"/>
<path d="M86.5919 113.045C90.2539 113.045 93.2226 110.076 93.2226 106.414C93.2226 102.752 90.2539 99.7837 86.5919 99.7837C82.9298 99.7837 79.9612 102.752 79.9612 106.414C79.9612 110.076 82.9298 113.045 86.5919 113.045Z" fill="#FF0080"/>
<path d="M153.168 128.652L150.222 133.629C149.93 134.122 149.529 134.54 149.05 134.852C148.57 135.164 148.025 135.361 147.457 135.427C146.888 135.494 146.312 135.428 145.774 135.236C145.235 135.043 144.748 134.729 144.351 134.318V134.318C143.981 133.935 143.698 133.477 143.52 132.975C143.343 132.473 143.275 131.938 143.322 131.408C143.369 130.878 143.53 130.364 143.793 129.901C144.056 129.438 144.415 129.037 144.847 128.725L149.639 125.26C154.24 119.031 156.884 108.444 159.138 96.9875L168.501 98.0857C166.088 107.457 160.316 117.846 153.168 128.652Z" fill="#ECC489"/>
<path d="M154.328 100.329L169.554 104.647V78.0583L167.533 78.7123C165.767 79.2835 164.163 80.2666 162.852 81.5805C161.542 82.8943 160.562 84.5011 159.996 86.2681L154.328 100.329Z" fill="#404040"/>
<path d="M185.461 195.548L179.78 195.321C177.914 176.119 175.532 158.681 170.69 149.643C166.001 154.666 164.936 170.534 164.151 192.139H158.646C152.858 167.241 151.397 149.588 158.646 132.826H188.189L185.461 195.548Z" fill="#7E7AB8"/>
<path d="M164.494 195.99L154.633 201.027C154.369 201.162 154.08 201.241 153.784 201.26C153.488 201.279 153.192 201.238 152.913 201.138C152.633 201.038 152.378 200.881 152.161 200.679C151.945 200.476 151.772 200.231 151.654 199.96V199.96C151.444 199.477 151.417 198.935 151.577 198.433C151.737 197.932 152.074 197.506 152.525 197.234L153.869 196.424L157.613 190.827L163.995 190.323L165.162 191.442C165.487 191.753 165.733 192.137 165.879 192.563C166.024 192.989 166.066 193.443 166.001 193.888C165.936 194.333 165.765 194.756 165.503 195.122C165.24 195.487 164.894 195.785 164.494 195.99Z" fill="#2F2E41"/>
<path d="M184.533 200.71L173.464 201.021C173.167 201.03 172.872 200.977 172.597 200.867C172.322 200.757 172.072 200.592 171.863 200.382C171.654 200.172 171.49 199.921 171.382 199.645C171.274 199.369 171.223 199.074 171.233 198.777C171.251 198.251 171.459 197.75 171.819 197.366C172.179 196.982 172.666 196.742 173.19 196.691L174.752 196.537L180.539 193.092L186.517 195.379L187.09 196.891C187.25 197.312 187.307 197.764 187.255 198.211C187.204 198.658 187.047 199.087 186.797 199.461C186.546 199.834 186.21 200.143 185.816 200.36C185.422 200.578 184.982 200.698 184.533 200.71V200.71Z" fill="#2F2E41"/>
<path d="M173.278 73.1419C177.382 73.1419 180.708 69.8156 180.708 65.7124C180.708 61.6093 177.382 58.283 173.278 58.283C169.175 58.283 165.849 61.6093 165.849 65.7124C165.849 69.8156 169.175 73.1419 173.278 73.1419Z" fill="#ECC489"/>
<path d="M185.461 77.604L170.008 83.5125C170.908 78.6609 170.92 74.0902 169.44 69.991L179.326 68.2866C178.496 72.5484 181.066 75.4433 185.461 77.604Z" fill="#ECC489"/>
<path d="M191.825 137.144C178.223 139.726 167.271 138.07 158.418 133.053C162.513 118.946 163.095 103.336 162.024 87.0203C161.918 85.3888 162.322 83.7648 163.18 82.373C164.038 80.9813 165.307 79.8906 166.812 79.2521L170.69 77.6039C172.781 82.3555 177.6 79.6173 182.734 76.0132L189.079 78.8166C190.086 79.2614 190.934 80.0033 191.508 80.943C192.082 81.8827 192.355 82.9754 192.291 84.0748C191.023 105.749 189.318 128.986 191.825 137.144Z" fill="#404040"/>
<path d="M196.37 133.962L195.965 139.759C195.892 140.816 195.403 141.8 194.606 142.497C193.809 143.194 192.768 143.548 191.711 143.48V143.48C191.019 143.436 190.35 143.213 189.769 142.833C189.189 142.452 188.717 141.928 188.401 141.311C188.084 140.693 187.933 140.004 187.962 139.311C187.991 138.618 188.2 137.944 188.568 137.356L191.825 132.144C193.749 124.643 192.222 113.838 190.007 102.374L199.097 99.8745C200.38 109.466 198.935 121.262 196.37 133.962Z" fill="#ECC489"/>
<path d="M181.783 60.8856C181.783 60.8856 183.172 57.83 179.561 56.4411C179.561 56.4411 176.505 51.4412 170.394 54.7745C170.394 54.7745 166.228 56.4411 166.228 60.8856C166.228 65.33 164.839 66.1633 164.839 66.1633C164.839 66.1633 166.907 64.0414 167.463 62.3748C168.018 60.7082 172.339 60.33 174.005 61.9967C175.672 63.6633 179.839 63.3856 179.839 63.3856L179.561 69.4967C179.561 69.4967 180.95 65.8856 181.505 65.8856C182.061 65.8856 182.617 60.8856 181.783 60.8856Z" fill="#2F2E41"/>
<path d="M202.278 100.102L187.052 104.42V77.8311L189.073 78.485C190.839 79.0562 192.443 80.0393 193.754 81.3532C195.064 82.667 196.044 84.2738 196.61 86.0408L202.278 100.102Z" fill="#404040"/>
<path d="M259.2 201H70.1653V201.623H259.2V201Z" fill="#E6E6E6"/>
<path d="M212.908 150.662C217.041 156.504 218.132 189.751 218.376 200.408C218.382 200.648 218.388 200.876 218.391 201.091H228.852C228.98 200.864 229.098 200.639 229.211 200.408C235.411 188.17 231.971 173.495 231.79 172.753C232.261 175.086 230.131 181.848 227.723 188.397C226.254 168.259 213.694 151.679 212.908 150.662Z" fill="#FF80BF"/>
</g>
<defs>
<clipPath id="clip0_670_50">
<rect width="259.2" height="201.792" fill="white"/>
</clipPath>
</defs>
</svg>
