<svg width="260" height="150" viewBox="0 0 260 150" fill="none" xmlns="http://www.w3.org/2000/svg">
<g clip-path="url(#clip0_670_292)">
<path d="M129.6 149.179C201.176 149.179 259.2 145.842 259.2 141.725C259.2 137.609 201.176 134.271 129.6 134.271C58.0239 134.271 0 137.609 0 141.725C0 145.842 58.0239 149.179 129.6 149.179Z" fill="#F2F2F2"/>
<path d="M235.972 0H41.2756V6.19413H235.972V0Z" fill="#F2F2F2"/>
<path d="M46.4856 4.60875C47.371 4.60875 48.0887 3.89102 48.0887 3.00567C48.0887 2.12031 47.371 1.40259 46.4856 1.40259C45.6003 1.40259 44.8826 2.12031 44.8826 3.00567C44.8826 3.89102 45.6003 4.60875 46.4856 4.60875Z" fill="#00FF80"/>
<path d="M51.6956 4.60875C52.581 4.60875 53.2987 3.89102 53.2987 3.00567C53.2987 2.12031 52.581 1.40259 51.6956 1.40259C50.8103 1.40259 50.0925 2.12031 50.0925 3.00567C50.0925 3.89102 50.8103 4.60875 51.6956 4.60875Z" fill="#00FF80"/>
<path d="M56.9056 4.60875C57.7909 4.60875 58.5087 3.89102 58.5087 3.00567C58.5087 2.12031 57.7909 1.40259 56.9056 1.40259C56.0202 1.40259 55.3025 2.12031 55.3025 3.00567C55.3025 3.89102 56.0202 4.60875 56.9056 4.60875Z" fill="#00FF80"/>
<path d="M41.4134 97.9657L41.2754 98.0841V139.868H235.972V66.4729L233.651 66.6489L41.4134 97.9657Z" fill="#3F3D56"/>
<path d="M109.695 41.4343H55.3264V43.6266H109.695V41.4343Z" fill="#3F3D56"/>
<path d="M109.695 46.2576H55.3264V48.4499H109.695V46.2576Z" fill="#3F3D56"/>
<path d="M73.7417 51.0806H55.3264V53.2729H73.7417V51.0806Z" fill="#3F3D56"/>
<path d="M220.57 102.298H166.201V104.49H220.57V102.298Z" fill="white"/>
<path d="M220.57 107.121H166.201V109.313H220.57V107.121Z" fill="white"/>
<path d="M184.617 111.944H166.201V114.136H184.617V111.944Z" fill="white"/>
<path d="M132.422 137.847C133.603 137.847 134.56 136.89 134.56 135.708C134.56 134.527 133.603 133.57 132.422 133.57C131.24 133.57 130.283 134.527 130.283 135.708C130.283 136.89 131.24 137.847 132.422 137.847Z" fill="#F2F2F2"/>
<path d="M138.624 138.061C139.805 138.061 140.762 137.104 140.762 135.922C140.762 134.741 139.805 133.784 138.624 133.784C137.442 133.784 136.485 134.741 136.485 135.922C136.485 137.104 137.442 138.061 138.624 138.061Z" fill="#F2F2F2"/>
<path d="M144.826 138.275C146.007 138.275 146.964 137.317 146.964 136.136C146.964 134.955 146.007 133.998 144.826 133.998C143.645 133.998 142.687 134.955 142.687 136.136C142.687 137.317 143.645 138.275 144.826 138.275Z" fill="#F2F2F2"/>
<path d="M138.643 137.633C139.588 137.633 140.354 136.867 140.354 135.922C140.354 134.977 139.588 134.211 138.643 134.211C137.698 134.211 136.932 134.977 136.932 135.922C136.932 136.867 137.698 137.633 138.643 137.633Z" fill="#3F3D56"/>
<path d="M91.6704 66.5283H73.2551V70.7298H91.6704V66.5283Z" fill="#3F3D56"/>
<path d="M201.13 123.381H182.715V127.583H201.13V123.381Z" fill="white"/>
<path opacity="0.3" d="M82.5665 81.3903C89.6019 81.3903 95.3053 75.6869 95.3053 68.6514C95.3053 61.616 89.6019 55.9126 82.5665 55.9126C75.531 55.9126 69.8276 61.616 69.8276 68.6514C69.8276 75.6869 75.531 81.3903 82.5665 81.3903Z" fill="#00FF80"/>
<path opacity="0.3" d="M82.5665 77.1441C87.2568 77.1441 91.0591 73.3418 91.0591 68.6515C91.0591 63.9612 87.2568 60.1589 82.5665 60.1589C77.8762 60.1589 74.074 63.9612 74.074 68.6515C74.074 73.3418 77.8762 77.1441 82.5665 77.1441Z" fill="#00FF80"/>
<path d="M82.5666 74.5491C85.8237 74.5491 88.4642 71.9087 88.4642 68.6515C88.4642 65.3944 85.8237 62.7539 82.5666 62.7539C79.3094 62.7539 76.6689 65.3944 76.6689 68.6515C76.6689 71.9087 79.3094 74.5491 82.5666 74.5491Z" fill="#00FF80"/>
<path opacity="0.3" d="M189.756 49.8195C196.791 49.8195 202.495 44.1161 202.495 37.0806C202.495 30.0452 196.791 24.3418 189.756 24.3418C182.72 24.3418 177.017 30.0452 177.017 37.0806C177.017 44.1161 182.72 49.8195 189.756 49.8195Z" fill="#00FF80"/>
<path opacity="0.3" d="M189.756 45.5733C194.446 45.5733 198.248 41.771 198.248 37.0807C198.248 32.3904 194.446 28.5881 189.756 28.5881C185.065 28.5881 181.263 32.3904 181.263 37.0807C181.263 41.771 185.065 45.5733 189.756 45.5733Z" fill="#00FF80"/>
<path d="M189.756 42.9783C193.013 42.9783 195.653 40.3379 195.653 37.0807C195.653 33.8236 193.013 31.1831 189.756 31.1831C186.498 31.1831 183.858 33.8236 183.858 37.0807C183.858 40.3379 186.498 42.9783 189.756 42.9783Z" fill="#00FF80"/>
<path opacity="0.3" d="M192.026 138.243C199.062 138.243 204.765 132.54 204.765 125.504C204.765 118.469 199.062 112.766 192.026 112.766C184.991 112.766 179.287 118.469 179.287 125.504C179.287 132.54 184.991 138.243 192.026 138.243Z" fill="#00FF80"/>
<path opacity="0.3" d="M192.026 133.997C196.717 133.997 200.519 130.195 200.519 125.504C200.519 120.814 196.717 117.012 192.026 117.012C187.336 117.012 183.534 120.814 183.534 125.504C183.534 130.195 187.336 133.997 192.026 133.997Z" fill="#00FF80"/>
<path d="M192.026 131.402C195.283 131.402 197.924 128.761 197.924 125.504C197.924 122.247 195.283 119.607 192.026 119.607C188.769 119.607 186.129 122.247 186.129 125.504C186.129 128.761 188.769 131.402 192.026 131.402Z" fill="#00FF80"/>
<path d="M21.2129 25.7989L26.4561 26.0022L26.7175 19.261L21.4743 19.0577L21.2129 25.7989Z" fill="#00FF80"/>
<path d="M45.1262 42.6666C45.1262 42.6666 52.3871 39.1974 52.2709 42.1935C52.1547 45.1895 44.9519 47.1607 44.9519 47.1607L45.1262 42.6666Z" fill="#FFB9B9"/>
<path d="M41.1425 68.0171C41.1425 68.0171 44.5681 76.4016 45.8338 82.4518C47.0994 88.502 49.027 96.8284 46.5476 102.733C44.0682 108.638 37.0189 125.993 36.9463 127.866C36.8737 129.738 37.5501 131.64 36.0521 131.582C34.5541 131.524 26.402 128.957 26.0711 127.819C25.7401 126.681 28.8524 123.801 28.8524 123.801L36.5375 99.7197L28.5192 84.0308L22.7357 107.436L21.6029 136.648C21.6029 136.648 16.0434 134.932 15.2363 136.401C15.2363 136.401 12.7454 132.929 12.429 131.416C12.1126 129.903 13.6053 101.081 13.6053 101.081C13.6053 101.081 8.50217 68.2517 12.6218 68.4115C16.7414 68.5712 32.8774 58.6949 41.1425 68.0171Z" fill="#BFBFBF"/>
<path d="M36.1103 130.084C36.1103 130.084 39.9104 138.483 40.2704 138.872C40.6304 139.261 43.1067 143.108 41.2341 143.035C39.3616 142.962 34.9401 140.915 31.6857 137.789C28.4313 134.662 24.1405 129.245 24.5296 128.885C24.9186 128.525 27.5837 127.503 27.5837 127.503L36.1103 130.084Z" fill="#2F2E41"/>
<path d="M20.9265 134.746C20.9265 134.746 21.1558 138.506 21.8467 140.033C22.5377 141.56 22.4505 143.807 20.578 143.734C18.7054 143.662 13.8659 142.724 13.8659 142.724C13.8659 142.724 13.5785 140.462 13.9675 140.102C14.3566 139.742 16.0143 135.681 15.3089 134.528C14.6034 133.376 20.9265 134.746 20.9265 134.746Z" fill="#2F2E41"/>
<path d="M18.1563 12.7402C18.1563 12.7402 14.1643 18.9617 12.6082 20.4016C11.0521 21.8415 15.43 25.0119 15.43 25.0119L23.2656 26.0659C23.2656 26.0659 23.1671 18.9357 23.5706 18.2012C23.9742 17.4667 18.1563 12.7402 18.1563 12.7402Z" fill="#FFB9B9"/>
<path d="M24.967 20.8809C24.967 20.8809 23.3528 23.8189 21.8547 23.7608C20.3567 23.7027 12.6082 20.4017 12.2772 19.2636C11.9463 18.1256 9.71069 27.4157 9.71069 27.4157L28.6707 60.7822L33.2955 57.5859L31.0546 37.9952L29.2142 27.4218L24.967 20.8809Z" fill="#00FF80"/>
<path d="M11.5779 50.7426C12.3342 52.3247 12.8066 53.9746 12.7411 55.6636C12.7382 55.7385 12.7353 55.8134 12.7286 55.8882C12.5492 59.3544 11.2723 63.3631 10.8142 66.2784C10.4818 68.3697 10.5764 69.8961 11.8002 70.2549C14.7672 71.1201 11.3676 71.7384 22.8467 75.5592C34.3257 79.38 36.329 76.082 36.358 75.333C36.3871 74.584 34.7324 68.8938 35.1214 68.5338C35.5104 68.1738 40.5648 73.2457 42.0918 72.5548C43.6189 71.8639 42.2661 68.0607 42.2661 68.0607C42.2661 68.0607 38.826 60.0508 38.8986 58.1782C38.9712 56.3057 33.6876 47.4742 33.6876 47.4742L30.0939 24.0803C30.0939 24.0803 28.7121 21.0262 26.8541 20.5791C24.996 20.1319 23.4544 21.1974 23.4544 21.1974L26.5636 28.0692L29.844 40.1987L29.2952 44.6783C29.2952 44.6783 25.4806 36.6539 22.9752 33.5562C20.4698 30.4584 15.1281 23.1249 15.1281 23.1249C15.1281 23.1249 13.881 18.917 14.8225 17.6595C15.764 16.3983 10.8954 16.2095 8.81957 21.38C7.71935 24.1204 5.93309 28.2069 4.81409 32.0117C3.81697 35.3825 3.34596 38.5336 4.33382 40.3347C5.84366 43.0863 9.64168 46.703 11.5779 50.7426Z" fill="#404040"/>
<path opacity="0.1" d="M4.33382 40.3346C5.84368 43.0861 9.64169 46.7028 11.5779 50.7424C12.0837 48.9204 12.7006 47.0353 12.7006 47.0353C12.7006 47.0353 15.0669 34.3746 8.06747 31.1026C6.9077 30.9904 5.74776 31.3145 4.8141 32.0116C3.81697 35.3823 3.34596 38.5334 4.33382 40.3346Z" fill="#404040"/>
<path d="M32.1199 39.5369L38.054 41.2673L46.2932 41.5868L47.1408 48.746L33.6004 49.7212C33.6004 49.7212 30.2184 40.2133 32.1199 39.5369Z" fill="#404040"/>
<path d="M22.4437 63.6084C22.4437 63.6084 30.3822 64.9255 28.5703 67.3144C26.7585 69.7033 19.7258 67.1918 19.7258 67.1918L22.4437 63.6084Z" fill="#FFB9B9"/>
<path opacity="0.1" d="M12.7287 55.8882C12.5492 59.3544 11.2723 63.3632 10.8142 66.2785C13.3431 68.672 15.748 70.7831 16.6543 70.8183C18.5269 70.8909 21.5374 70.6325 22.6464 71.0506C23.7555 71.4687 24.4059 64.3676 24.4059 64.3676C24.4059 64.3676 23.744 62.0915 20.7915 60.8518C18.7986 60.0131 14.9786 57.7383 12.7287 55.8882Z" fill="#404040"/>
<path d="M8.15461 28.8556C8.15461 28.8556 1.81701 27.8597 2.15939 38.375C2.50177 48.8903 1.49134 55.6024 4.04029 57.5766C6.58923 59.5508 14.8689 68.4985 16.7415 68.5711C18.614 68.6437 21.6246 68.3854 22.7336 68.8035C23.8426 69.2216 24.493 62.1204 24.493 62.1204C24.493 62.1204 23.8312 59.8443 20.8787 58.6046C17.9262 57.3649 10.9702 52.9694 11.0283 51.4713C11.0864 49.9733 12.7878 44.7883 12.7878 44.7883C12.7878 44.7883 15.1541 32.1276 8.15461 28.8556Z" fill="#404040"/>
<path d="M23.7449 21.9524C28.2987 21.9524 31.9903 18.2609 31.9903 13.7071C31.9903 9.15326 28.2987 5.46167 23.7449 5.46167C19.1911 5.46167 15.4995 9.15326 15.4995 13.7071C15.4995 18.2609 19.1911 21.9524 23.7449 21.9524Z" fill="#FFB9B9"/>
<path d="M29.2967 1.8891C29.4956 2.06045 29.7338 2.17997 29.99 2.23701C30.1186 2.25994 30.2511 2.23105 30.3585 2.15665C30.466 2.08224 30.5396 1.96836 30.5633 1.83987C30.752 2.2311 30.9648 2.64807 31.35 2.84881C31.7351 3.04956 32.3307 2.88123 32.3862 2.45045C32.4424 2.77753 32.5872 3.08297 32.8046 3.33366C33.0436 3.5615 33.477 3.61901 33.6856 3.36311C33.5169 4.28489 33.621 5.23285 33.5681 6.16844C33.5151 7.10403 33.2656 8.0959 32.5587 8.71112C31.5279 9.60834 29.9777 9.3869 28.6217 9.21692C28.4166 9.17388 28.2038 9.18552 28.0047 9.25067C27.4969 9.46699 27.52 10.1738 27.5131 10.7256C27.4717 11.6939 27.0885 12.6162 26.4315 13.3287C25.7745 14.0412 24.8863 14.4978 23.9245 14.6175C23.3863 14.7006 22.8371 14.5665 22.3976 14.2448C22.0126 13.9185 21.8159 13.3866 21.3748 13.1414C20.6571 12.7427 19.7868 13.3242 19.2621 13.9557C18.7374 14.5871 18.2203 15.3639 17.4075 15.4795C16.3325 15.6323 15.5137 14.5368 15.112 13.528C14.5578 12.1142 14.2923 10.6036 14.3311 9.08552C14.3699 7.56741 14.7123 6.07244 15.3381 4.68875C17.5827 -0.204162 25.2504 -0.978073 29.2967 1.8891Z" fill="#2F2E41"/>
<path d="M227.228 132.996C230.132 137.948 235.989 139.909 235.989 139.909C235.989 139.909 237.138 133.84 234.234 128.888C231.33 123.936 225.473 121.975 225.473 121.975C225.473 121.975 224.325 128.044 227.228 132.996Z" fill="#F2F2F2"/>
<path d="M229.04 131.267C234.062 134.049 236.166 139.856 236.166 139.856C236.166 139.856 230.128 141.153 225.106 138.371C220.084 135.59 217.98 129.783 217.98 129.783C217.98 129.783 224.018 128.486 229.04 131.267Z" fill="#00FF80"/>
</g>
<defs>
<clipPath id="clip0_670_292">
<rect width="259.2" height="149.179" fill="white"/>
</clipPath>
</defs>
</svg>
