<svg width="260" height="170" viewBox="0 0 260 170" fill="none" xmlns="http://www.w3.org/2000/svg">
<g clip-path="url(#clip0_671_460)">
<path d="M128.267 28.8503C132.61 28.8503 136.131 25.3299 136.131 20.9872C136.131 16.6445 132.61 13.124 128.267 13.124C123.925 13.124 120.404 16.6445 120.404 20.9872C120.404 25.3299 123.925 28.8503 128.267 28.8503Z" fill="#FDB581"/>
<path d="M145.866 17.2641C145.644 16.5369 145.214 15.8905 144.63 15.4045C144.045 14.9184 143.332 14.6138 142.576 14.5282C142.559 14.5268 142.541 14.5268 142.523 14.5282C142.502 14.5216 142.48 14.5167 142.458 14.5135C139.826 14.1719 136.898 15.0024 134.928 16.8106C134.197 17.4712 133.612 18.2778 133.211 19.1783C132.846 18.6794 132.365 18.2771 131.809 18.0062C131.253 17.7352 130.64 17.6038 130.022 17.6234C129.225 17.676 128.464 17.9732 127.842 18.4744C127.22 18.9756 126.768 19.6564 126.547 20.424C126.523 20.5177 126.529 20.6169 126.566 20.7065C126.603 20.7962 126.667 20.8717 126.75 20.9217C126.987 21.1242 127.269 21.2676 127.572 21.3398C128.223 21.4782 128.879 21.6049 129.536 21.7197C130.82 21.9435 132.111 22.1251 133.409 22.2645C134.266 22.3558 135.125 22.4285 135.986 22.4825C137.764 22.5944 139.552 22.6209 141.333 22.5649C142.217 22.5355 143.065 22.506 143.872 22.1173C144.46 21.8281 144.962 21.3907 145.33 20.848C145.676 20.3261 145.903 19.7347 145.995 19.1155C146.088 18.4963 146.044 17.8643 145.866 17.2641Z" fill="#F2F2F2"/>
<path d="M129.689 28.7197C129.674 28.3902 129.619 28.0638 129.524 27.7479C129.302 27.0208 128.871 26.3746 128.286 25.8886C127.702 25.4026 126.988 25.098 126.232 25.0121C126.215 25.0106 126.199 25.0106 126.182 25.0121C126.16 25.0057 126.137 25.0008 126.114 24.9973C124.657 24.8188 123.178 24.9708 121.788 25.442C119.65 26.1576 117.774 27.6006 116.87 29.6621C116.504 29.1629 116.023 28.7604 115.466 28.4895C114.91 28.2185 114.296 28.0873 113.678 28.1072C112.881 28.1598 112.12 28.457 111.498 28.9582C110.876 29.4594 110.424 30.1402 110.203 30.9078C110.18 31.0016 110.187 31.1002 110.224 31.1896C110.26 31.279 110.324 31.3545 110.406 31.4055C110.643 31.6075 110.925 31.7507 111.228 31.8236C111.881 31.9621 112.535 32.0887 113.195 32.2035C114.479 32.4274 115.769 32.609 117.064 32.7484C119.697 33.031 122.346 33.1313 124.992 33.0487C125.873 33.0193 126.724 32.9898 127.531 32.6011C128.118 32.3118 128.619 31.8743 128.985 31.3318C129.502 30.5626 129.749 29.6442 129.689 28.7197V28.7197Z" fill="#F2F2F2"/>
<path d="M232.099 124.132C232.212 129.493 231.472 134.838 229.907 139.967C229.852 140.154 229.786 140.34 229.721 140.526H197.458C197.919 138.255 198.651 136.048 199.638 133.951C202.323 128.252 206.707 123.376 211.036 118.532C216.997 111.858 222.816 105.239 223.737 96.5591C226.1 100.162 227.986 104.055 229.348 108.143C227.681 108.76 226.151 109.698 224.844 110.904C224.482 111.244 224.099 111.737 224.285 112.208C224.46 112.603 224.943 112.734 225.37 112.822C226.4 113.019 227.43 113.217 228.46 113.403C229.271 113.567 230.093 113.721 230.915 113.874C231.638 117.248 232.034 120.682 232.099 124.132V124.132Z" fill="#80FFFF"/>
<path d="M259.2 120.581C254.027 123.726 250.74 128.592 248.055 134.039C245.718 134.571 243.561 135.704 241.797 137.326C241.425 137.666 241.041 138.159 241.238 138.63C241.403 139.025 241.896 139.156 242.323 139.244C243.342 139.441 244.384 139.639 245.403 139.825C245.304 140.055 245.205 140.296 245.107 140.526H210.915C212.467 138.433 214.186 136.469 216.055 134.652C216.46 134.247 216.877 133.863 217.304 133.469C221.663 129.53 226.667 126.371 232.099 124.132C240.655 120.555 250.011 119.329 259.2 120.581Z" fill="#00AAFF"/>
<path d="M216.614 140.526H186.17C186.004 138.088 186.018 135.641 186.214 133.206C187.43 118.159 195.616 103.825 207.967 95.1453C206.389 100.767 207.2 106.356 208.844 111.967C208.614 112.044 208.384 112.11 208.175 112.197C206.508 112.815 204.978 113.753 203.671 114.959C203.31 115.299 202.926 115.792 203.112 116.263C203.277 116.658 203.77 116.789 204.197 116.877C205.227 117.074 206.257 117.271 207.277 117.458C208.099 117.622 208.921 117.775 209.742 117.94C210.126 118.006 210.51 118.082 210.893 118.159C210.948 118.29 210.981 118.411 211.036 118.532C212.964 123.847 215.068 129.206 216.055 134.652C216.299 136.019 216.467 137.398 216.559 138.784C216.592 139.365 216.614 139.945 216.614 140.526Z" fill="#80FFFF"/>
<path d="M50.6915 124.132C50.8045 129.493 50.0647 134.838 48.4997 139.967C48.4449 140.154 48.3791 140.34 48.3134 140.526H16.0503C16.5115 138.255 17.2437 136.048 18.2312 133.951C20.9161 128.252 25.2996 123.376 29.6284 118.532C35.5901 111.858 41.4093 105.239 42.3298 96.5591C44.6929 100.162 46.579 104.055 47.9408 108.143C46.2735 108.76 44.7433 109.698 43.4367 110.904C43.075 111.244 42.6914 111.737 42.8778 112.208C43.0531 112.603 43.5353 112.734 43.9627 112.822C44.9928 113.019 46.023 113.217 47.0531 113.403C47.8641 113.567 48.686 113.721 49.5079 113.874C50.2303 117.248 50.6267 120.682 50.6915 124.132V124.132Z" fill="#00AAFF"/>
<path d="M77.7931 120.581C72.6204 123.726 69.3327 128.592 66.6479 134.039C64.3114 134.571 62.1544 135.704 60.3903 137.326C60.0177 137.666 59.6341 138.159 59.8314 138.63C59.9958 139.025 60.489 139.156 60.9163 139.244C61.9355 139.441 62.9766 139.639 63.9958 139.825C63.8972 140.055 63.7985 140.296 63.6999 140.526H29.5081C31.0602 138.433 32.779 136.469 34.6478 134.652C35.0533 134.247 35.4697 133.863 35.8971 133.469C40.2557 129.53 45.2605 126.371 50.6917 124.132C59.2478 120.555 68.6043 119.329 77.7931 120.581V120.581Z" fill="#80FFFF"/>
<path d="M35.2067 140.526H4.76278C4.59653 138.088 4.6112 135.641 4.80666 133.206C6.02309 118.159 14.2094 103.825 26.5601 95.1453C24.982 100.767 25.7929 106.356 27.4368 111.967C27.2067 112.044 26.9765 112.11 26.7683 112.197C25.101 112.815 23.5709 113.753 22.2642 114.959C21.9026 115.299 21.519 115.792 21.7053 116.263C21.8696 116.658 22.3628 116.789 22.7902 116.877C23.8203 117.074 24.8505 117.271 25.8697 117.458C26.6916 117.622 27.5135 117.775 28.3354 117.94C28.719 118.006 29.1026 118.082 29.4861 118.159C29.5409 118.29 29.5738 118.411 29.6286 118.532C31.5574 123.847 33.6614 129.206 34.6478 134.652C34.8919 136.019 35.0602 137.398 35.1519 138.784C35.1848 139.365 35.2067 139.945 35.2067 140.526Z" fill="#80FFFF"/>
<path d="M148.545 127.745L175.747 130.159L176.038 130.186V14.1149C175.941 14.0472 175.844 13.9795 175.747 13.9117C170.078 9.94632 163.945 6.68865 157.485 4.21118L156.095 23.3826L155.969 25.1378L154.594 44.1502L154.169 49.9988L148.595 127.067L148.545 127.745Z" fill="#99CCFF"/>
<path d="M81.2738 11.9533C81.0794 12.077 80.885 12.2007 80.6907 12.3303V130.186L81.2738 130.133L108.181 127.745L108.131 127.067L102.557 49.9987L102.133 44.1501L100.757 25.1377L100.631 23.3825L99.173 3.27759C92.8866 5.45664 86.8788 8.36861 81.2738 11.9533V11.9533Z" fill="#99CCFF"/>
<path d="M80.6909 12.3303C80.2992 12.5836 79.9075 12.8427 79.5217 13.1048V131.794C79.5217 134.759 81.2798 137.245 83.6299 137.878C84.0139 137.982 84.41 138.035 84.8079 138.034H172.213C172.61 138.035 173.005 137.982 173.388 137.878C174.262 137.636 175.053 137.162 175.679 136.506C176.873 135.23 177.525 133.541 177.499 131.794V15.1692C177.016 14.8129 176.53 14.4595 176.038 14.1149C175.941 14.0472 175.844 13.9795 175.747 13.9117V131.794C175.748 132.176 175.702 132.557 175.611 132.928C175.196 134.68 173.827 135.964 172.213 135.964H84.8079C82.8583 135.964 81.274 134.094 81.274 131.794V11.9534C81.0796 12.0771 80.8852 12.2007 80.6909 12.3303Z" fill="#E6E6E6"/>
<path d="M176.623 23.3838H80.397V25.1387H176.623V23.3838Z" fill="#E6E6E6"/>
<path d="M147.152 0.998441C146.569 0.85414 145.985 0.718673 145.396 0.592041V48.2438H147.152V0.998441Z" fill="#E6E6E6"/>
<path d="M111.624 0C111.038 0.108962 110.452 0.22087 109.869 0.341612V48.2437H111.624V0Z" fill="#E6E6E6"/>
<path d="M61.5313 134.963C61.5308 135.97 61.7238 136.967 62.0996 137.902C62.244 138.264 62.4163 138.615 62.615 138.95C62.8716 139.388 63.1694 139.8 63.5043 140.181C64.2442 141.024 65.1554 141.7 66.1772 142.162C67.1991 142.625 68.3079 142.864 69.4295 142.864H184.667C186.762 142.864 188.771 142.032 190.252 140.551C191.733 139.069 192.565 137.06 192.565 134.966C192.565 132.871 191.733 130.862 190.252 129.381C188.771 127.9 186.762 127.067 184.667 127.067H69.4295C67.3359 127.069 65.3286 127.902 63.8479 129.382C62.3672 130.862 61.5341 132.869 61.5313 134.963V134.963Z" fill="#E6E6E6"/>
<path d="M80.3972 49.9995L176.038 49.9995V44.1499L80.3972 44.1499V49.9995Z" fill="#E6E6E6"/>
<path d="M132.312 45.6123H124.123C124.123 44.759 124.462 43.9407 125.065 43.3374C125.668 42.734 126.487 42.395 127.34 42.395H129.095C129.517 42.395 129.936 42.4782 130.326 42.6399C130.716 42.8016 131.071 43.0386 131.37 43.3374C131.669 43.6361 131.906 43.9908 132.067 44.3811C132.229 44.7714 132.312 45.1898 132.312 45.6123V45.6123H132.312Z" fill="#E6E6E6"/>
<path d="M0 139.474C2.55833 142.506 5.32544 145.355 8.28111 148H245.812C248.768 145.355 251.535 142.506 254.093 139.474H0Z" fill="#3F3D56"/>
<path d="M116.822 110.965V141.168H137.981V110.965C137.982 110.747 137.912 110.536 137.784 110.361C137.655 110.186 137.473 110.057 137.266 109.993C137.168 109.96 137.065 109.944 136.962 109.946H117.844C117.71 109.945 117.577 109.972 117.453 110.023C117.329 110.074 117.217 110.149 117.122 110.243C117.027 110.338 116.952 110.45 116.9 110.574C116.849 110.698 116.822 110.831 116.822 110.965V110.965ZM125.08 121.342C125.085 120.747 125.326 120.178 125.749 119.759C126.172 119.34 126.743 119.105 127.338 119.105C127.934 119.105 128.505 119.34 128.928 119.759C129.351 120.178 129.591 120.747 129.597 121.342V124.847C129.594 125.444 129.355 126.016 128.931 126.437C128.508 126.858 127.935 127.094 127.338 127.094C126.741 127.094 126.168 126.858 125.745 126.437C125.322 126.016 125.083 125.444 125.08 124.847V121.342Z" fill="#2F2E41"/>
<path d="M116.757 140.202V143.114C116.758 143.265 116.818 143.41 116.924 143.517C117.031 143.624 117.175 143.684 117.326 143.686H137.478C137.629 143.685 137.773 143.624 137.88 143.517C137.986 143.41 138.046 143.265 138.046 143.114V140.202H116.757Z" fill="#3F3D56"/>
<path d="M83.5356 65.4597V120.606C83.5362 121.309 83.8156 121.983 84.3126 122.48C84.8095 122.977 85.4833 123.256 86.1861 123.257H167.908C168.61 123.256 169.284 122.977 169.781 122.48C170.278 121.983 170.557 121.309 170.558 120.606V65.4597C170.556 64.7576 170.276 64.0847 169.78 63.5885C169.283 63.0923 168.61 62.8131 167.908 62.8123H86.1861C85.4839 62.8132 84.8107 63.0923 84.314 63.5885C83.8172 64.0847 83.5373 64.7576 83.5356 65.4597V65.4597Z" fill="#3F3D56"/>
<path d="M85.4526 66.1458V119.926C85.4533 120.301 85.6027 120.661 85.8682 120.927C86.1337 121.192 86.4937 121.342 86.8691 121.342H167.227C167.603 121.342 167.963 121.192 168.228 120.927C168.494 120.661 168.643 120.301 168.644 119.926V66.1458C168.644 65.7698 168.494 65.4093 168.229 65.1431C167.963 64.877 167.603 64.7271 167.227 64.7263H86.8691C86.4932 64.7271 86.1329 64.877 85.8674 65.1432C85.6018 65.4093 85.4527 65.7698 85.4526 66.1458V66.1458Z" fill="#0080FF"/>
<path d="M101.838 144.372C101.92 144.474 102.024 144.557 102.142 144.613C102.261 144.67 102.39 144.699 102.521 144.698H150.329C150.46 144.698 150.589 144.669 150.707 144.613C150.825 144.556 150.929 144.474 151.011 144.373C151.094 144.271 151.152 144.153 151.183 144.026C151.214 143.899 151.216 143.766 151.189 143.638L150.447 140.113C150.416 139.969 150.35 139.836 150.254 139.724C150.159 139.612 150.037 139.527 149.899 139.474C149.8 139.435 149.694 139.415 149.587 139.415H103.261C103.154 139.415 103.048 139.435 102.948 139.474C102.811 139.527 102.689 139.612 102.593 139.724C102.498 139.836 102.431 139.969 102.401 140.113L101.659 143.638C101.632 143.766 101.635 143.898 101.666 144.025C101.697 144.152 101.756 144.27 101.838 144.372Z" fill="#2F2E41"/>
<path d="M147.919 140.934H149.104C149.183 140.934 149.248 140.869 149.248 140.79V140.194C149.248 140.114 149.183 140.05 149.104 140.05H147.919C147.839 140.05 147.775 140.114 147.775 140.194V140.79C147.775 140.869 147.839 140.934 147.919 140.934Z" fill="#3F3D56"/>
<path d="M144.974 140.934H146.159C146.238 140.934 146.303 140.869 146.303 140.79V140.194C146.303 140.114 146.238 140.05 146.159 140.05H144.974C144.895 140.05 144.83 140.114 144.83 140.194V140.79C144.83 140.869 144.895 140.934 144.974 140.934Z" fill="#3F3D56"/>
<path d="M142.029 140.934H143.214C143.293 140.934 143.358 140.869 143.358 140.79V140.194C143.358 140.114 143.293 140.05 143.214 140.05H142.029C141.95 140.05 141.885 140.114 141.885 140.194V140.79C141.885 140.869 141.95 140.934 142.029 140.934Z" fill="#3F3D56"/>
<path d="M139.084 140.934H140.269C140.348 140.934 140.413 140.869 140.413 140.79V140.194C140.413 140.114 140.348 140.05 140.269 140.05H139.084C139.005 140.05 138.94 140.114 138.94 140.194V140.79C138.94 140.869 139.005 140.934 139.084 140.934Z" fill="#3F3D56"/>
<path d="M136.139 140.934H137.324C137.404 140.934 137.468 140.869 137.468 140.79V140.194C137.468 140.114 137.404 140.05 137.324 140.05H136.139C136.06 140.05 135.996 140.114 135.996 140.194V140.79C135.996 140.869 136.06 140.934 136.139 140.934Z" fill="#3F3D56"/>
<path d="M133.194 140.934H134.379C134.459 140.934 134.523 140.869 134.523 140.79V140.194C134.523 140.114 134.459 140.05 134.379 140.05H133.194C133.115 140.05 133.05 140.114 133.05 140.194V140.79C133.05 140.869 133.115 140.934 133.194 140.934Z" fill="#3F3D56"/>
<path d="M130.249 140.934H131.434C131.514 140.934 131.578 140.869 131.578 140.79V140.194C131.578 140.114 131.514 140.05 131.434 140.05H130.249C130.17 140.05 130.106 140.114 130.106 140.194V140.79C130.106 140.869 130.17 140.934 130.249 140.934Z" fill="#3F3D56"/>
<path d="M127.304 140.934H128.489C128.569 140.934 128.633 140.869 128.633 140.79V140.194C128.633 140.114 128.569 140.05 128.489 140.05H127.304C127.225 140.05 127.161 140.114 127.161 140.194V140.79C127.161 140.869 127.225 140.934 127.304 140.934Z" fill="#3F3D56"/>
<path d="M124.36 140.934H125.544C125.624 140.934 125.688 140.869 125.688 140.79V140.194C125.688 140.114 125.624 140.05 125.544 140.05H124.36C124.28 140.05 124.216 140.114 124.216 140.194V140.79C124.216 140.869 124.28 140.934 124.36 140.934Z" fill="#3F3D56"/>
<path d="M121.415 140.934H122.6C122.679 140.934 122.743 140.869 122.743 140.79V140.194C122.743 140.114 122.679 140.05 122.6 140.05H121.415C121.335 140.05 121.271 140.114 121.271 140.194V140.79C121.271 140.869 121.335 140.934 121.415 140.934Z" fill="#3F3D56"/>
<path d="M118.47 140.934H119.655C119.734 140.934 119.798 140.869 119.798 140.79V140.194C119.798 140.114 119.734 140.05 119.655 140.05H118.47C118.39 140.05 118.326 140.114 118.326 140.194V140.79C118.326 140.869 118.39 140.934 118.47 140.934Z" fill="#3F3D56"/>
<path d="M115.525 140.934H116.71C116.789 140.934 116.854 140.869 116.854 140.79V140.194C116.854 140.114 116.789 140.05 116.71 140.05H115.525C115.445 140.05 115.381 140.114 115.381 140.194V140.79C115.381 140.869 115.445 140.934 115.525 140.934Z" fill="#3F3D56"/>
<path d="M112.58 140.934H113.765C113.844 140.934 113.909 140.869 113.909 140.79V140.194C113.909 140.114 113.844 140.05 113.765 140.05H112.58C112.501 140.05 112.436 140.114 112.436 140.194V140.79C112.436 140.869 112.501 140.934 112.58 140.934Z" fill="#3F3D56"/>
<path d="M109.635 140.934H110.82C110.899 140.934 110.964 140.869 110.964 140.79V140.194C110.964 140.114 110.899 140.05 110.82 140.05H109.635C109.556 140.05 109.491 140.114 109.491 140.194V140.79C109.491 140.869 109.556 140.934 109.635 140.934Z" fill="#3F3D56"/>
<path d="M106.69 140.934H107.875C107.954 140.934 108.019 140.869 108.019 140.79V140.194C108.019 140.114 107.954 140.05 107.875 140.05H106.69C106.611 140.05 106.546 140.114 106.546 140.194V140.79C106.546 140.869 106.611 140.934 106.69 140.934Z" fill="#3F3D56"/>
<path d="M103.745 140.934H104.93C105.009 140.934 105.074 140.869 105.074 140.79V140.194C105.074 140.114 105.009 140.05 104.93 140.05H103.745C103.666 140.05 103.601 140.114 103.601 140.194V140.79C103.601 140.869 103.666 140.934 103.745 140.934Z" fill="#3F3D56"/>
<path d="M147.954 142.406H149.139C149.218 142.406 149.282 142.342 149.282 142.262V141.667C149.282 141.587 149.218 141.523 149.139 141.523H147.954C147.874 141.523 147.81 141.587 147.81 141.667V142.262C147.81 142.342 147.874 142.406 147.954 142.406Z" fill="#3F3D56"/>
<path d="M145.009 142.406H146.194C146.273 142.406 146.337 142.342 146.337 142.262V141.667C146.337 141.587 146.273 141.523 146.194 141.523H145.009C144.929 141.523 144.865 141.587 144.865 141.667V142.262C144.865 142.342 144.929 142.406 145.009 142.406Z" fill="#3F3D56"/>
<path d="M142.064 142.406H143.249C143.328 142.406 143.393 142.342 143.393 142.262V141.667C143.393 141.587 143.328 141.523 143.249 141.523H142.064C141.984 141.523 141.92 141.587 141.92 141.667V142.262C141.92 142.342 141.984 142.406 142.064 142.406Z" fill="#3F3D56"/>
<path d="M139.119 142.406H140.304C140.383 142.406 140.448 142.342 140.448 142.262V141.667C140.448 141.587 140.383 141.523 140.304 141.523H139.119C139.04 141.523 138.975 141.587 138.975 141.667V142.262C138.975 142.342 139.04 142.406 139.119 142.406Z" fill="#3F3D56"/>
<path d="M136.174 142.406H137.359C137.438 142.406 137.503 142.342 137.503 142.262V141.667C137.503 141.587 137.438 141.523 137.359 141.523H136.174C136.095 141.523 136.03 141.587 136.03 141.667V142.262C136.03 142.342 136.095 142.406 136.174 142.406Z" fill="#3F3D56"/>
<path d="M133.229 142.406H134.414C134.493 142.406 134.558 142.342 134.558 142.262V141.667C134.558 141.587 134.493 141.523 134.414 141.523H133.229C133.15 141.523 133.085 141.587 133.085 141.667V142.262C133.085 142.342 133.15 142.406 133.229 142.406Z" fill="#3F3D56"/>
<path d="M130.284 142.406H131.469C131.548 142.406 131.613 142.342 131.613 142.262V141.667C131.613 141.587 131.548 141.523 131.469 141.523H130.284C130.205 141.523 130.14 141.587 130.14 141.667V142.262C130.14 142.342 130.205 142.406 130.284 142.406Z" fill="#3F3D56"/>
<path d="M127.339 142.406H128.524C128.604 142.406 128.668 142.342 128.668 142.262V141.667C128.668 141.587 128.604 141.523 128.524 141.523H127.339C127.26 141.523 127.196 141.587 127.196 141.667V142.262C127.196 142.342 127.26 142.406 127.339 142.406Z" fill="#3F3D56"/>
<path d="M124.394 142.406H125.579C125.659 142.406 125.723 142.342 125.723 142.262V141.667C125.723 141.587 125.659 141.523 125.579 141.523H124.394C124.315 141.523 124.251 141.587 124.251 141.667V142.262C124.251 142.342 124.315 142.406 124.394 142.406Z" fill="#3F3D56"/>
<path d="M121.449 142.406H122.634C122.714 142.406 122.778 142.342 122.778 142.262V141.667C122.778 141.587 122.714 141.523 122.634 141.523H121.449C121.37 141.523 121.306 141.587 121.306 141.667V142.262C121.306 142.342 121.37 142.406 121.449 142.406Z" fill="#3F3D56"/>
<path d="M118.505 142.406H119.689C119.769 142.406 119.833 142.342 119.833 142.262V141.667C119.833 141.587 119.769 141.523 119.689 141.523H118.505C118.425 141.523 118.361 141.587 118.361 141.667V142.262C118.361 142.342 118.425 142.406 118.505 142.406Z" fill="#3F3D56"/>
<path d="M115.559 142.406H116.744C116.824 142.406 116.888 142.342 116.888 142.262V141.667C116.888 141.587 116.824 141.523 116.744 141.523H115.559C115.48 141.523 115.416 141.587 115.416 141.667V142.262C115.416 142.342 115.48 142.406 115.559 142.406Z" fill="#3F3D56"/>
<path d="M112.615 142.406H113.8C113.879 142.406 113.943 142.342 113.943 142.262V141.667C113.943 141.587 113.879 141.523 113.8 141.523H112.615C112.535 141.523 112.471 141.587 112.471 141.667V142.262C112.471 142.342 112.535 142.406 112.615 142.406Z" fill="#3F3D56"/>
<path d="M109.67 142.406H110.855C110.934 142.406 110.999 142.342 110.999 142.262V141.667C110.999 141.587 110.934 141.523 110.855 141.523H109.67C109.59 141.523 109.526 141.587 109.526 141.667V142.262C109.526 142.342 109.59 142.406 109.67 142.406Z" fill="#3F3D56"/>
<path d="M106.725 142.406H107.91C107.989 142.406 108.053 142.342 108.053 142.262V141.667C108.053 141.587 107.989 141.523 107.91 141.523H106.725C106.645 141.523 106.581 141.587 106.581 141.667V142.262C106.581 142.342 106.645 142.406 106.725 142.406Z" fill="#3F3D56"/>
<path d="M103.78 142.406H104.965C105.044 142.406 105.109 142.342 105.109 142.262V141.667C105.109 141.587 105.044 141.523 104.965 141.523H103.78C103.701 141.523 103.636 141.587 103.636 141.667V142.262C103.636 142.342 103.701 142.406 103.78 142.406Z" fill="#3F3D56"/>
<path d="M123.511 144.173H135.003C135.082 144.173 135.147 144.109 135.147 144.029V143.433C135.147 143.354 135.082 143.29 135.003 143.29H123.511C123.431 143.29 123.367 143.354 123.367 143.433V144.029C123.367 144.109 123.431 144.173 123.511 144.173Z" fill="#3F3D56"/>
<path d="M90.9073 72.1349H166.098C166.176 72.1332 166.25 72.1009 166.305 72.045C166.36 71.9891 166.39 71.9141 166.39 71.8359C166.39 71.7577 166.36 71.6826 166.305 71.6267C166.25 71.5708 166.176 71.5386 166.098 71.5369H90.9073C90.8291 71.5386 90.7547 71.5708 90.7 71.6267C90.6454 71.6826 90.6147 71.7577 90.6147 71.8359C90.6147 71.9141 90.6454 71.9891 90.7 72.045C90.7547 72.1009 90.8291 72.1332 90.9073 72.1349V72.1349Z" fill="#3F3D56"/>
<path d="M160.98 70.0101C161.947 70.0101 162.732 69.208 162.732 68.2187C162.732 67.2293 161.947 66.4272 160.98 66.4272C160.012 66.4272 159.227 67.2293 159.227 68.2187C159.227 69.208 160.012 70.0101 160.98 70.0101Z" fill="#3F3D56"/>
<path d="M154.926 70.0101C155.894 70.0101 156.678 69.208 156.678 68.2187C156.678 67.2293 155.894 66.4272 154.926 66.4272C153.958 66.4272 153.174 67.2293 153.174 68.2187C153.174 69.208 153.958 70.0101 154.926 70.0101Z" fill="#3F3D56"/>
<path d="M148.872 70.0101C149.84 70.0101 150.625 69.208 150.625 68.2187C150.625 67.2293 149.84 66.4272 148.872 66.4272C147.905 66.4272 147.12 67.2293 147.12 68.2187C147.12 69.208 147.905 70.0101 148.872 70.0101Z" fill="#3F3D56"/>
<path d="M94.2315 67.1973C94.2312 67.2396 94.2394 67.2816 94.2554 67.3208C94.2714 67.36 94.295 67.3956 94.3248 67.4257C94.3547 67.4558 94.3901 67.4797 94.4292 67.4961C94.4682 67.5125 94.5101 67.521 94.5524 67.5212H98.852C98.937 67.5192 99.0179 67.4841 99.0773 67.4232C99.1367 67.3624 99.17 67.2808 99.17 67.1958C99.17 67.1108 99.1367 67.0291 99.0773 66.9683C99.0179 66.9075 98.937 66.8723 98.852 66.8704H94.5524C94.4666 66.8714 94.3847 66.9064 94.3245 66.9676C94.2644 67.0289 94.2309 67.1114 94.2315 67.1973V67.1973Z" fill="#3F3D56"/>
<path d="M94.2315 68.4194C94.2312 68.4618 94.2394 68.5037 94.2554 68.5429C94.2714 68.5821 94.295 68.6178 94.3248 68.6479C94.3546 68.678 94.3901 68.7019 94.4291 68.7183C94.4682 68.7346 94.5101 68.7432 94.5524 68.7434H98.852C98.9371 68.7415 99.018 68.7064 99.0775 68.6455C99.137 68.5847 99.1703 68.503 99.1703 68.4179C99.1703 68.3329 99.137 68.2512 99.0775 68.1903C99.018 68.1295 98.9371 68.0944 98.852 68.0925H94.5524C94.4666 68.0936 94.3847 68.1285 94.3245 68.1898C94.2644 68.251 94.2309 68.3336 94.2315 68.4194V68.4194Z" fill="#3F3D56"/>
<path d="M94.2315 69.6384C94.2309 69.7242 94.2644 69.8068 94.3245 69.868C94.3847 69.9293 94.4666 69.9642 94.5524 69.9653H98.852C98.937 69.9633 99.0179 69.9281 99.0773 69.8673C99.1367 69.8065 99.17 69.7249 99.17 69.6399C99.17 69.5549 99.1367 69.4732 99.0773 69.4124C99.0179 69.3516 98.937 69.3164 98.852 69.3145H94.5524C94.5101 69.3146 94.4682 69.3232 94.4292 69.3395C94.3901 69.3559 94.3546 69.3798 94.3248 69.4099C94.295 69.44 94.2714 69.4757 94.2554 69.5149C94.2394 69.5541 94.2312 69.596 94.2315 69.6384V69.6384Z" fill="#3F3D56"/>
<path d="M95.5603 79.0837H94.0154C93.5469 79.0837 93.1672 79.4635 93.1672 79.9319C93.1672 80.4003 93.5469 80.78 94.0154 80.78H95.5603C96.0287 80.78 96.4084 80.4003 96.4084 79.9319C96.4084 79.4635 96.0287 79.0837 95.5603 79.0837Z" fill="#E6E6E6"/>
<path d="M113.23 79.0837H111.685C111.216 79.0837 110.837 79.4635 110.837 79.9319C110.837 80.4003 111.216 80.78 111.685 80.78H113.23C113.698 80.78 114.078 80.4003 114.078 79.9319C114.078 79.4635 113.698 79.0837 113.23 79.0837Z" fill="#E6E6E6"/>
<path d="M118.236 79.0837H116.691C116.223 79.0837 115.843 79.4635 115.843 79.9319C115.843 80.4003 116.223 80.78 116.691 80.78H118.236C118.705 80.78 119.084 80.4003 119.084 79.9319C119.084 79.4635 118.705 79.0837 118.236 79.0837Z" fill="#E6E6E6"/>
<path d="M108.424 78.9424H98.8215C98.3531 78.9424 97.9734 79.3221 97.9734 79.7905C97.9734 80.2589 98.3531 80.6386 98.8215 80.6386H108.424C108.892 80.6386 109.272 80.2589 109.272 79.7905C109.272 79.3221 108.892 78.9424 108.424 78.9424Z" fill="#E6E6E6"/>
<path d="M131.983 78.9424H122.381C121.912 78.9424 121.533 79.3221 121.533 79.7905C121.533 80.2589 121.912 80.6386 122.381 80.6386H131.983C132.451 80.6386 132.831 80.2589 132.831 79.7905C132.831 79.3221 132.451 78.9424 131.983 78.9424Z" fill="#E6E6E6"/>
<path d="M100.272 82.9121H98.7273C98.2589 82.9121 97.8792 83.2918 97.8792 83.7602C97.8792 84.2286 98.2589 84.6084 98.7273 84.6084H100.272C100.741 84.6084 101.12 84.2286 101.12 83.7602C101.12 83.2918 100.741 82.9121 100.272 82.9121Z" fill="#E6E6E6"/>
<path d="M117.942 82.9121H116.397C115.928 82.9121 115.549 83.2918 115.549 83.7602C115.549 84.2286 115.928 84.6084 116.397 84.6084H117.942C118.41 84.6084 118.79 84.2286 118.79 83.7602C118.79 83.2918 118.41 82.9121 117.942 82.9121Z" fill="#E6E6E6"/>
<path d="M122.948 82.9121H121.403C120.935 82.9121 120.555 83.2918 120.555 83.7602C120.555 84.2286 120.935 84.6084 121.403 84.6084H122.948C123.416 84.6084 123.796 84.2286 123.796 83.7602C123.796 83.2918 123.416 82.9121 122.948 82.9121Z" fill="#E6E6E6"/>
<path d="M113.136 82.7708H103.533C103.065 82.7708 102.685 83.1505 102.685 83.6189C102.685 84.0873 103.065 84.467 103.533 84.467H113.136C113.604 84.467 113.984 84.0873 113.984 83.6189C113.984 83.1505 113.604 82.7708 113.136 82.7708Z" fill="#E6E6E6"/>
<path d="M136.695 82.7708H127.093C126.624 82.7708 126.245 83.1505 126.245 83.6189C126.245 84.0873 126.624 84.467 127.093 84.467H136.695C137.163 84.467 137.543 84.0873 137.543 83.6189C137.543 83.1505 137.163 82.7708 136.695 82.7708Z" fill="#E6E6E6"/>
<path d="M104.984 86.7407H103.439C102.971 86.7407 102.591 87.1204 102.591 87.5888C102.591 88.0572 102.971 88.437 103.439 88.437H104.984C105.453 88.437 105.832 88.0572 105.832 87.5888C105.832 87.1204 105.453 86.7407 104.984 86.7407Z" fill="#E6E6E6"/>
<path d="M122.654 86.7407H121.109C120.64 86.7407 120.26 87.1204 120.26 87.5888C120.26 88.0572 120.64 88.437 121.109 88.437H122.654C123.122 88.437 123.502 88.0572 123.502 87.5888C123.502 87.1204 123.122 86.7407 122.654 86.7407Z" fill="#E6E6E6"/>
<path d="M127.66 86.7407H126.115C125.647 86.7407 125.267 87.1204 125.267 87.5888C125.267 88.0572 125.647 88.437 126.115 88.437H127.66C128.128 88.437 128.508 88.0572 128.508 87.5888C128.508 87.1204 128.128 86.7407 127.66 86.7407Z" fill="#E6E6E6"/>
<path d="M117.847 86.5991H108.245C107.777 86.5991 107.397 86.9788 107.397 87.4473C107.397 87.9157 107.777 88.2954 108.245 88.2954H117.847C118.316 88.2954 118.696 87.9157 118.696 87.4473C118.696 86.9788 118.316 86.5991 117.847 86.5991Z" fill="#E6E6E6"/>
<path d="M141.407 86.5991H131.805C131.336 86.5991 130.957 86.9788 130.957 87.4473C130.957 87.9157 131.336 88.2954 131.805 88.2954H141.407C141.875 88.2954 142.255 87.9157 142.255 87.4473C142.255 86.9788 141.875 86.5991 141.407 86.5991Z" fill="#E6E6E6"/>
<path d="M109.696 90.5691H108.151C107.682 90.5691 107.303 90.9488 107.303 91.4172C107.303 91.8856 107.682 92.2653 108.151 92.2653H109.696C110.164 92.2653 110.544 91.8856 110.544 91.4172C110.544 90.9488 110.164 90.5691 109.696 90.5691Z" fill="#E6E6E6"/>
<path d="M127.365 90.5691H125.821C125.352 90.5691 124.972 90.9488 124.972 91.4172C124.972 91.8856 125.352 92.2653 125.821 92.2653H127.365C127.834 92.2653 128.214 91.8856 128.214 91.4172C128.214 90.9488 127.834 90.5691 127.365 90.5691Z" fill="#E6E6E6"/>
<path d="M132.372 90.5691H130.827C130.358 90.5691 129.979 90.9488 129.979 91.4172C129.979 91.8856 130.358 92.2653 130.827 92.2653H132.372C132.84 92.2653 133.22 91.8856 133.22 91.4172C133.22 90.9488 132.84 90.5691 132.372 90.5691Z" fill="#E6E6E6"/>
<path d="M122.559 90.4275H112.957C112.489 90.4275 112.109 90.8072 112.109 91.2756C112.109 91.744 112.489 92.1237 112.957 92.1237H122.559C123.028 92.1237 123.407 91.744 123.407 91.2756C123.407 90.8072 123.028 90.4275 122.559 90.4275Z" fill="#E6E6E6"/>
<path d="M113.23 105.792H111.685C111.216 105.792 110.837 106.172 110.837 106.64C110.837 107.109 111.216 107.488 111.685 107.488H113.23C113.698 107.488 114.078 107.109 114.078 106.64C114.078 106.172 113.698 105.792 113.23 105.792Z" fill="#E6E6E6"/>
<path d="M118.236 105.792H116.691C116.223 105.792 115.843 106.172 115.843 106.64C115.843 107.109 116.223 107.488 116.691 107.488H118.236C118.705 107.488 119.084 107.109 119.084 106.64C119.084 106.172 118.705 105.792 118.236 105.792Z" fill="#E6E6E6"/>
<path d="M131.983 105.934H122.381C121.912 105.934 121.533 106.314 121.533 106.782C121.533 107.25 121.912 107.63 122.381 107.63H131.983C132.451 107.63 132.831 107.25 132.831 106.782C132.831 106.314 132.451 105.934 131.983 105.934Z" fill="#E6E6E6"/>
<path d="M95.5603 105.792H94.0154C93.5469 105.792 93.1672 106.172 93.1672 106.64C93.1672 107.109 93.5469 107.488 94.0154 107.488H95.5603C96.0287 107.488 96.4084 107.109 96.4084 106.64C96.4084 106.172 96.0287 105.792 95.5603 105.792Z" fill="#E6E6E6"/>
<path d="M108.424 105.934H98.8215C98.3531 105.934 97.9734 106.314 97.9734 106.782C97.9734 107.25 98.3531 107.63 98.8215 107.63H108.424C108.892 107.63 109.272 107.25 109.272 106.782C109.272 106.314 108.892 105.934 108.424 105.934Z" fill="#E6E6E6"/>
<path d="M100.272 101.964H98.7273C98.2589 101.964 97.8792 102.344 97.8792 102.812C97.8792 103.28 98.2589 103.66 98.7273 103.66H100.272C100.741 103.66 101.12 103.28 101.12 102.812C101.12 102.344 100.741 101.964 100.272 101.964Z" fill="#E6E6E6"/>
<path d="M117.942 101.964H116.397C115.928 101.964 115.549 102.344 115.549 102.812C115.549 103.28 115.928 103.66 116.397 103.66H117.942C118.41 103.66 118.79 103.28 118.79 102.812C118.79 102.344 118.41 101.964 117.942 101.964Z" fill="#E6E6E6"/>
<path d="M122.948 101.964H121.403C120.935 101.964 120.555 102.344 120.555 102.812C120.555 103.28 120.935 103.66 121.403 103.66H122.948C123.416 103.66 123.796 103.28 123.796 102.812C123.796 102.344 123.416 101.964 122.948 101.964Z" fill="#E6E6E6"/>
<path d="M113.136 102.105H103.533C103.065 102.105 102.685 102.485 102.685 102.953C102.685 103.422 103.065 103.801 103.533 103.801H113.136C113.604 103.801 113.984 103.422 113.984 102.953C113.984 102.485 113.604 102.105 113.136 102.105Z" fill="#E6E6E6"/>
<path d="M104.984 98.1355H103.439C102.971 98.1355 102.591 98.5152 102.591 98.9836C102.591 99.452 102.971 99.8317 103.439 99.8317H104.984C105.453 99.8317 105.832 99.452 105.832 98.9836C105.832 98.5152 105.453 98.1355 104.984 98.1355Z" fill="#E6E6E6"/>
<path d="M122.654 98.1355H121.109C120.64 98.1355 120.26 98.5152 120.26 98.9836C120.26 99.452 120.64 99.8317 121.109 99.8317H122.654C123.122 99.8317 123.502 99.452 123.502 98.9836C123.502 98.5152 123.122 98.1355 122.654 98.1355Z" fill="#E6E6E6"/>
<path d="M127.66 98.1355H126.115C125.647 98.1355 125.267 98.5152 125.267 98.9836C125.267 99.452 125.647 99.8317 126.115 99.8317H127.66C128.128 99.8317 128.508 99.452 128.508 98.9836C128.508 98.5152 128.128 98.1355 127.66 98.1355Z" fill="#E6E6E6"/>
<path d="M117.847 98.2769H108.245C107.777 98.2769 107.397 98.6566 107.397 99.125C107.397 99.5934 107.777 99.9731 108.245 99.9731H117.847C118.316 99.9731 118.696 99.5934 118.696 99.125C118.696 98.6566 118.316 98.2769 117.847 98.2769Z" fill="#E6E6E6"/>
<path d="M109.696 94.3071H108.151C107.682 94.3071 107.303 94.6869 107.303 95.1553C107.303 95.6237 107.682 96.0034 108.151 96.0034H109.696C110.164 96.0034 110.544 95.6237 110.544 95.1553C110.544 94.6869 110.164 94.3071 109.696 94.3071Z" fill="#E6E6E6"/>
<path d="M127.365 94.3071H125.821C125.352 94.3071 124.972 94.6869 124.972 95.1553C124.972 95.6237 125.352 96.0034 125.821 96.0034H127.365C127.834 96.0034 128.214 95.6237 128.214 95.1553C128.214 94.6869 127.834 94.3071 127.365 94.3071Z" fill="#E6E6E6"/>
<path d="M132.372 94.3071H130.827C130.358 94.3071 129.979 94.6869 129.979 95.1553C129.979 95.6237 130.358 96.0034 130.827 96.0034H132.372C132.84 96.0034 133.22 95.6237 133.22 95.1553C133.22 94.6869 132.84 94.3071 132.372 94.3071Z" fill="#E6E6E6"/>
<path d="M122.559 94.4485H112.957C112.489 94.4485 112.109 94.8282 112.109 95.2966C112.109 95.765 112.489 96.1447 112.957 96.1447H122.559C123.028 96.1447 123.407 95.765 123.407 95.2966C123.407 94.8282 123.028 94.4485 122.559 94.4485Z" fill="#E6E6E6"/>
<path d="M103.046 160.778C102.981 160.811 102.917 160.843 102.852 160.873C102.442 161.076 102.03 161.276 101.615 161.473C100.372 162.065 99.1137 162.628 97.8395 163.161C94.4869 164.563 91.0469 165.746 87.5411 166.704C86.9521 163.031 86.3808 154.37 85.8331 148C85.73 146.802 85.6269 145.686 85.5239 144.699C85.426 143.404 85.24 142.117 84.9673 140.847C84.9406 140.748 84.902 140.652 84.8524 140.562C84.9084 141.071 84.9673 142.591 85.0232 144.699C85.0527 145.686 85.0792 146.802 85.1086 148C85.247 154.132 85.3913 162.475 85.5356 167.225C85.1263 167.325 84.714 167.425 84.3017 167.519C84.0426 167.581 83.7805 167.64 83.5184 167.696C83.2003 167.767 82.8823 167.837 82.5642 167.902C82.2314 167.973 81.8987 168.041 81.5659 168.105C76.1278 169.174 70.5987 169.71 65.0567 169.707C64.6886 169.707 64.3234 169.704 63.9553 169.701C63.8434 169.701 63.7315 169.699 63.6166 169.696C63.2927 169.69 62.9569 169.684 62.6153 169.675C56.0661 169.494 49.5598 168.556 43.226 166.88L43.4822 148L43.5264 144.699L43.544 143.448C43.3982 143.85 43.3109 144.272 43.2849 144.699C43.1818 145.503 43.0758 146.643 42.9698 148C42.5663 153.231 42.1511 161.668 41.7211 166.468C36.6294 165.019 32.907 163.697 28.254 161.37C28.0744 161.282 27.8918 161.191 27.7122 161.099C27.7446 160.873 27.7799 160.646 27.8123 160.413C28.3394 156.75 27.7181 151.982 28.3011 148C28.7458 144.929 29.2052 141.978 29.6676 139.475C30.2271 136.462 30.7955 134.094 31.358 132.943C32.0058 131.615 32.6537 130.307 33.281 129.056C33.5519 128.517 33.818 127.988 34.0791 127.468C34.2204 127.189 34.3618 126.912 34.5002 126.641C35.1304 125.407 35.7253 124.267 36.2701 123.257C36.6529 122.547 37.0063 121.905 37.3303 121.343C37.7102 120.68 38.0459 120.133 38.3227 119.717C40.3674 116.618 43.4097 114.31 46.9454 113.177L47.0338 113.153L47.1192 113.189L47.2163 113.233L52.8294 111.18L55.3355 105.146L68.2077 104.354L70.2868 105.935L71.3499 106.745L72.4837 107.608L74.5687 109.195L75.1607 109.378L76.0412 109.649L82.0636 111.498L82.1254 111.472L82.2138 111.495C85.4313 112.525 88.2477 114.532 90.271 117.238C90.4713 117.497 90.6568 117.765 90.8365 118.036C91.3253 118.76 91.985 119.906 92.7625 121.343C93.0835 121.935 93.4221 122.577 93.7784 123.257C93.9934 123.667 95.8487 129.456 97.654 135.37C99.3414 140.906 100.985 146.551 101.2 148C101.238 148.268 101.279 148.539 101.317 148.807C101.562 150.483 101.803 152.17 102.036 153.817C102.381 156.258 102.716 158.614 103.037 160.719C103.04 160.74 103.043 160.758 103.046 160.778Z" fill="#C080FF"/>
<path opacity="0.2" d="M89.4047 139.461L86.9024 129.804L84.6929 138.137L89.4047 139.461Z" fill="black"/>
<path d="M4.66161 139.349C4.79135 139.727 5.03747 140.054 5.36462 140.283C5.69177 140.512 6.08312 140.632 6.48248 140.625L14.2841 140.424C14.6864 140.416 15.0753 140.278 15.3928 140.031C15.7103 139.784 15.9392 139.441 16.0454 139.053L17.1494 127.247C17.5411 127.425 17.9675 127.512 18.3975 127.504C19.1518 127.485 19.8678 127.167 20.3878 126.62C20.9078 126.073 21.1893 125.342 21.1704 124.588C21.1514 123.834 20.8336 123.118 20.2868 122.598C19.74 122.078 19.009 121.796 18.2547 121.815C18.0828 121.814 17.9114 121.832 17.7434 121.868C17.5606 121.67 17.3385 121.513 17.0913 121.407C16.8441 121.3 16.5772 121.246 16.308 121.249L4.30731 121.559C4.20776 121.562 4.10872 121.575 4.01129 121.596C3.74812 121.645 3.49851 121.749 3.27926 121.903C3.06001 122.057 2.87621 122.255 2.74024 122.486C2.60426 122.717 2.51927 122.974 2.49097 123.24C2.46267 123.506 2.49173 123.775 2.57619 124.029L4.66161 139.349ZM17.3758 126.446L18.1614 123.632C18.2508 123.307 18.2529 122.965 18.1674 122.639C18.2056 122.638 18.2392 122.62 18.2773 122.62C18.816 122.609 19.3371 122.812 19.7263 123.185C20.1156 123.557 20.3413 124.069 20.3539 124.607C20.3665 125.146 20.165 125.668 19.7936 126.058C19.4222 126.448 18.9112 126.675 18.3726 126.689C18.0244 126.7 17.6797 126.616 17.3758 126.446V126.446Z" fill="#2F2E41"/>
<path d="M4.01123 121.596C4.2669 123.058 7.14141 124.085 10.5978 123.907C13.7762 123.76 16.375 122.644 16.8511 121.321C16.6749 121.269 16.4917 121.245 16.3079 121.249L4.30725 121.559C4.2077 121.563 4.10866 121.575 4.01123 121.596V121.596Z" fill="#3F3D56"/>
<path d="M11.2313 132.862C11.2471 132.858 11.2621 132.852 11.2757 132.843L12.97 131.734C12.9905 131.72 13.0073 131.702 13.019 131.681C13.0306 131.659 13.0367 131.635 13.0367 131.611C13.0367 131.586 13.0306 131.562 13.019 131.541C13.0074 131.519 12.9906 131.501 12.9701 131.487L11.2091 130.334C11.1929 130.323 11.1748 130.316 11.1558 130.312C11.1368 130.309 11.1172 130.309 11.0982 130.313C11.0792 130.316 11.0612 130.324 11.0452 130.335C11.0291 130.346 11.0154 130.36 11.0048 130.376C10.9942 130.392 10.9869 130.41 10.9833 130.429C10.9797 130.448 10.9799 130.468 10.9839 130.487C10.9879 130.506 10.9955 130.524 11.0065 130.54C11.0175 130.556 11.0315 130.57 11.0477 130.58L12.6206 131.61L11.1146 132.596C11.0854 132.615 11.0639 132.644 11.054 132.678C11.0441 132.711 11.0463 132.747 11.0603 132.779C11.0743 132.811 11.0992 132.836 11.1305 132.852C11.1618 132.867 11.1975 132.871 11.2313 132.862H11.2313Z" fill="#0080FF"/>
<path d="M8.55538 132.986C8.58381 132.978 8.60945 132.963 8.629 132.941C8.64855 132.919 8.66112 132.892 8.66511 132.863C8.6691 132.834 8.66432 132.804 8.65139 132.778C8.63845 132.752 8.61794 132.73 8.5925 132.715L7.0308 131.82L8.54024 130.699C8.55575 130.687 8.56884 130.673 8.57876 130.656C8.58868 130.639 8.59523 130.621 8.59805 130.602C8.60087 130.583 8.59989 130.563 8.59518 130.545C8.59047 130.526 8.58211 130.508 8.57059 130.493C8.55906 130.477 8.5446 130.464 8.52801 130.454C8.51143 130.444 8.49306 130.438 8.47394 130.435C8.45483 130.432 8.43534 130.433 8.4166 130.438C8.39786 130.443 8.38024 130.451 8.36473 130.462L6.67475 131.718C6.65511 131.732 6.63941 131.751 6.62906 131.774C6.61872 131.796 6.61405 131.82 6.61549 131.845C6.61693 131.869 6.62442 131.893 6.6373 131.913C6.65017 131.934 6.66802 131.951 6.68923 131.964L8.44595 132.971C8.47909 132.99 8.51834 132.995 8.55538 132.986V132.986Z" fill="#0080FF"/>
<path d="M11.0629 133.834C11.0771 133.831 11.0907 133.825 11.1032 133.817C11.1197 133.807 11.1341 133.794 11.1456 133.778C11.157 133.763 11.1652 133.745 11.1698 133.726C11.1744 133.707 11.1752 133.688 11.1723 133.669C11.1693 133.65 11.1626 133.631 11.1525 133.615L8.75082 129.666C8.7304 129.633 8.69767 129.609 8.65979 129.6C8.62191 129.591 8.58197 129.597 8.5487 129.617C8.51543 129.638 8.49154 129.67 8.48227 129.708C8.47299 129.746 8.47908 129.786 8.4992 129.819L10.9009 133.768C10.9173 133.795 10.9419 133.816 10.971 133.828C11.0002 133.84 11.0323 133.842 11.0629 133.834V133.834Z" fill="#0080FF"/>
<path d="M231.22 161.099C231.04 161.19 230.858 161.281 230.678 161.37C226.025 163.696 222.303 165.019 217.211 166.467C216.781 161.667 216.366 153.23 215.962 148C215.856 146.642 215.75 145.503 215.647 144.699C215.621 144.271 215.534 143.85 215.388 143.447L215.406 144.699L215.45 148L215.706 166.88C209.372 168.556 202.866 169.493 196.317 169.675C195.975 169.683 195.639 169.689 195.316 169.695C195.201 169.698 195.089 169.701 194.977 169.701C194.609 169.704 194.244 169.707 193.875 169.707C186.974 169.712 180.097 168.878 173.396 167.224C173.541 162.474 173.685 154.131 173.823 148C173.853 146.801 173.879 145.685 173.909 144.699C173.965 142.59 174.024 141.071 174.08 140.561C174.03 140.651 173.992 140.747 173.965 140.847C173.692 142.117 173.506 143.404 173.408 144.699C173.305 145.685 173.202 146.801 173.099 148C172.551 154.37 171.98 163.031 171.391 166.703C167.885 165.746 164.445 164.563 161.093 163.16C159.326 162.424 157.59 161.63 155.886 160.778C156.21 158.658 156.549 156.281 156.896 153.816C157.167 151.905 157.447 149.941 157.732 148C158.174 145.002 173.181 112.628 176.718 111.495L176.807 111.471L176.869 111.498L182.891 109.648L183.771 109.377L184.363 109.195L186.448 107.607L187.582 106.745L188.645 105.935L190.724 104.353L203.597 105.145L206.103 111.18L211.716 113.232L211.813 113.188L211.898 113.153L211.987 113.176C215.522 114.31 218.565 116.618 220.609 119.717C220.886 120.132 221.222 120.68 221.602 121.343C221.926 121.905 222.279 122.547 222.662 123.257C223.207 124.267 223.802 125.407 224.432 126.64C224.57 126.911 224.712 127.188 224.853 127.468C225.115 127.986 225.381 128.515 225.651 129.055C226.278 130.307 226.926 131.614 227.574 132.943C228.137 134.094 228.705 136.462 229.265 139.474C229.727 141.978 230.186 144.928 230.631 148C231.214 151.981 230.593 156.749 231.12 160.413C231.152 160.645 231.188 160.872 231.22 161.099Z" fill="#FFC080"/>
<path d="M193.468 102.187C201.736 102.187 208.439 95.4845 208.439 87.2163C208.439 78.9481 201.736 72.2454 193.468 72.2454C185.2 72.2454 178.497 78.9481 178.497 87.2163C178.497 95.4845 185.2 102.187 193.468 102.187Z" fill="#FFB6B6"/>
<path opacity="0.2" d="M169.527 139.461L172.029 129.804L174.239 138.137L169.527 139.461Z" fill="black"/>
<path d="M236.115 133.169C235.219 145.503 236.147 150.933 231.205 161.102C226.709 163.302 222.026 165.098 217.211 166.467C216.711 166.609 216.209 166.746 215.706 166.88C209.373 168.556 202.866 169.493 196.317 169.674C195.975 169.683 195.64 169.689 195.316 169.695C195.201 169.698 195.089 169.701 194.977 169.701C194.609 169.704 194.244 169.707 193.876 169.707C186.974 169.712 180.097 168.878 173.397 167.224C172.725 167.059 172.057 166.886 171.391 166.703C167.885 165.746 164.445 164.563 161.093 163.16C159.326 162.424 157.59 161.63 155.886 160.778C155.5 160.584 155.115 160.389 154.735 160.189C152.782 156.755 151.672 152.579 151.648 147.561C153 138.915 233.128 125.713 236.115 133.169Z" fill="#2F2E41"/>
<path opacity="0.2" d="M236.112 135.281C236.158 134.518 236.209 133.729 236.269 132.908C233.283 125.451 153.154 138.653 151.802 147.3C151.806 148.092 151.84 148.862 151.897 149.613C155.171 141.079 231.294 128.531 236.112 135.281Z" fill="black"/>
<path d="M149.656 133.751L156.233 130.462L150.752 115.664L149.307 108.201C149.12 107.231 148.681 106.328 148.035 105.581C147.389 104.834 146.558 104.27 145.625 103.945C144.693 103.62 143.691 103.545 142.721 103.728C141.75 103.911 140.845 104.346 140.095 104.989V104.989C138.984 105.941 138.286 107.288 138.149 108.745C138.012 110.202 138.447 111.655 139.361 112.798L144.723 119.501L149.656 133.751Z" fill="#FFB6B6"/>
<path d="M156.233 127.722L147.463 132.107L154.118 152.959C154.596 154.457 155.453 155.805 156.605 156.874C157.758 157.943 159.167 158.696 160.696 159.06C162.581 159.509 164.561 159.346 166.347 158.594C168.134 157.842 169.634 156.541 170.631 154.879L188.279 124.631C189.529 122.546 189.915 120.056 189.354 117.691C188.793 115.325 187.33 113.273 185.276 111.973V111.973C184.172 111.273 182.932 110.814 181.639 110.625C180.345 110.437 179.026 110.522 177.768 110.877C176.51 111.232 175.34 111.847 174.335 112.684C173.331 113.52 172.513 114.559 171.937 115.732L161.165 138.684L156.233 127.722Z" fill="#FFC080"/>
<path d="M61.6982 101.154C70.7957 101.154 78.1707 93.7791 78.1707 84.6816C78.1707 75.5842 70.7957 68.2092 61.6982 68.2092C52.6008 68.2092 45.2258 75.5842 45.2258 84.6816C45.2258 93.7791 52.6008 101.154 61.6982 101.154Z" fill="#D4919B"/>
<path d="M45.4236 73.3303C46.7629 71.5251 48.688 70.2417 50.1604 68.5434C50.9684 67.6115 51.6392 66.5557 52.5475 65.7215C54.235 64.1715 56.5951 63.5364 58.885 63.4574C61.3947 63.393 63.8843 63.9202 66.1523 64.9966C68.4204 66.0729 70.4031 67.6681 71.9402 69.6531C73.1372 68.9513 74.3342 68.2495 75.5311 67.5477C76.004 68.7923 76.4769 70.037 76.9498 71.2817C77.3379 70.9444 77.8329 70.7553 78.3471 70.7481C78.8612 70.7409 79.3613 70.916 79.7588 71.2423C80.1562 71.5686 80.4252 72.025 80.5182 72.5308C80.6112 73.0365 80.5222 73.5588 80.2669 74.0052C80.5517 73.1249 81.8569 72.9382 82.5764 73.5197C83.296 74.1012 83.4886 75.1358 83.3713 76.0535C83.2239 77.0603 82.7788 78 82.0932 78.7518C81.4076 79.5036 80.5128 80.0332 79.5238 80.2724C77.9618 80.6204 76.1438 80.2548 74.8936 81.2538C73.8913 82.0547 73.5887 83.513 72.5659 84.2874C71.3054 85.2417 69.5239 84.8004 67.9572 85.0112C65.216 85.3802 63.0455 88.1838 63.3749 90.93C63.1269 90.0635 62.8663 89.1719 62.3034 88.468C61.7405 87.7641 60.7924 87.288 59.9291 87.5468C58.502 87.9746 58.2686 89.9197 58.6145 91.3688C59.5317 95.2119 63.0081 101.424 63.0081 101.424C58.4942 103.204 53.1165 101.521 49.6337 98.1421C46.1509 94.7634 44.337 89.9791 43.5469 85.1916C42.8769 81.1317 42.9718 76.6349 45.4236 73.3303Z" fill="#2F2E41"/>
<path d="M212.229 95.4689C215.363 88.2839 213.587 81.6721 209.767 78.1646V78.1617C208.265 74.7956 206.269 72.1982 203.983 71.5886C202.879 70.8789 201.807 70.0455 200.617 69.6214C200.063 69.4139 199.473 69.3208 198.881 69.3476C198.29 69.3744 197.711 69.5207 197.178 69.7775L196.571 69.6155C196.056 68.2991 195.452 68.2726 194.78 69.1384C192.195 67.9339 189.865 67.395 187.792 67.395C181.031 67.395 177.031 73.1199 175.971 80.0405L181.622 81.5454L183.587 78.4149L182.68 81.8281L185.798 82.6556C190.546 88.837 184.865 103.096 177.665 111.03C179.378 110.556 181.086 110.155 182.786 109.828L188.964 100.77L185.136 109.016C187.124 108.724 189.659 109.004 192.43 109.566C193.364 108.347 193.856 106.721 193.373 105.273C194.162 106.801 194.707 108.443 194.987 110.141C200.835 111.569 208.813 112.302 213.113 112.844C216.586 111.71 216.596 98.9028 212.229 95.4689Z" fill="#2F2E41"/>
<path d="M214.268 71.0286C216.563 76.1685 211.932 78.3792 207.689 78.3168C203.855 78.2604 200.596 75.5669 200.4 71.7375C200.306 69.8985 200.947 68.0975 202.181 66.7307C203.415 65.3639 205.141 64.5433 206.98 64.4493C210.809 64.2535 212.704 67.5275 214.268 71.0286Z" fill="#2F2E41"/>
<path d="M107.779 154.699L103.998 148.393L116.57 138.855L121.797 133.336C122.476 132.618 123.331 132.092 124.278 131.809C125.224 131.527 126.228 131.497 127.189 131.724C128.15 131.95 129.035 132.425 129.755 133.101C130.475 133.777 131.006 134.63 131.293 135.575V135.575C131.718 136.975 131.583 138.486 130.916 139.788C130.249 141.091 129.102 142.083 127.717 142.556L119.594 145.329L107.779 154.699Z" fill="#D4919B"/>
<path d="M110.512 154.491L104.625 159.397L103.037 160.72L102.852 160.873C102.442 161.076 102.03 161.276 101.615 161.473C100.372 162.065 99.1137 162.628 97.8395 163.161C94.4869 164.563 91.0469 165.747 87.5412 166.704C86.8756 166.886 86.2071 167.06 85.5357 167.225C85.1263 167.325 84.714 167.425 84.3018 167.519C84.0426 167.581 83.7805 167.64 83.5184 167.696C83.2004 167.767 82.8823 167.837 82.5643 167.902C82.2315 167.973 81.8987 168.041 81.5659 168.105C80.6705 167.253 79.9576 166.228 79.4706 165.092C78.9836 163.956 78.7326 162.733 78.7329 161.497C78.7329 161.417 78.7329 161.335 78.7359 161.253L79.6812 137.007L80.0994 126.261C80.1638 123.831 81.1761 121.522 82.9199 119.829C84.6637 118.135 87.0008 117.19 89.4318 117.197C89.7145 117.197 89.9943 117.211 90.2711 117.238C90.4714 117.497 90.6569 117.765 90.8365 118.036C91.3254 118.76 91.9851 119.906 92.7625 121.343C93.0835 121.935 93.4222 122.577 93.7785 123.257C93.9935 123.667 95.8488 129.456 97.654 135.37L96.8589 141.545L95.4218 152.677L101.318 148.807L105.47 146.08L105.962 146.902L107.243 149.04L109.716 153.163L110.512 154.491Z" fill="#C080FF"/>
<path d="M107.284 147.562C107.281 148.062 107.269 148.554 107.243 149.04C107.181 150.38 107.026 151.715 106.778 153.033C106.371 155.247 105.646 157.391 104.625 159.397C104.489 159.665 104.345 159.93 104.198 160.189C103.818 160.39 103.432 160.584 103.046 160.778C102.981 160.811 102.917 160.843 102.852 160.873C101.212 161.688 99.5409 162.451 97.8397 163.161C94.4871 164.563 91.047 165.747 87.5413 166.704C86.8758 166.886 86.2073 167.06 85.5358 167.225C84.2253 167.549 82.9021 167.842 81.566 168.105C76.128 169.174 70.5988 169.71 65.0568 169.707C64.6887 169.707 64.3236 169.705 63.9554 169.702C63.8435 169.702 63.7316 169.699 63.6168 169.696C63.2928 169.69 62.9571 169.684 62.6155 169.675C56.0663 169.494 49.5599 168.556 43.2262 166.88C42.7226 166.748 42.221 166.61 41.7213 166.468C36.9065 165.099 32.2232 163.303 27.727 161.102C22.7855 150.934 23.7131 145.503 22.8179 133.17C24.6555 128.579 55.745 131.821 79.6813 137.007C86.1778 138.415 92.1442 139.967 96.859 141.545C101.73 143.174 105.261 144.829 106.645 146.384C106.968 146.706 107.191 147.115 107.284 147.562V147.562Z" fill="#2F2E41"/>
<path opacity="0.2" d="M22.8196 135.281C22.7738 134.518 22.7227 133.729 22.6631 132.908C25.6492 125.451 105.778 138.653 107.129 147.3C107.126 148.092 107.092 148.862 107.035 149.613C103.761 141.079 27.6382 128.531 22.8196 135.281Z" fill="black"/>
</g>
<defs>
<clipPath id="clip0_671_460">
<rect width="259.2" height="169.707" fill="white"/>
</clipPath>
</defs>
</svg>
